<?xml version="1.0" encoding="UTF-8"?>
<!DOCTYPE svg PUBLIC "-//W3C//DTD SVG 1.1//EN" "http://www.w3.org/Graphics/SVG/1.1/DTD/svg11.dtd">
<svg xmlns="http://www.w3.org/2000/svg" version="1.1" width="676px" height="461px" style="shape-rendering:geometricPrecision; text-rendering:geometricPrecision; image-rendering:optimizeQuality; fill-rule:evenodd; clip-rule:evenodd" xmlns:xlink="http://www.w3.org/1999/xlink">
<g><path style="opacity:1" fill="#eaebed" d="M -0.5,-0.5 C 224.833,-0.5 450.167,-0.5 675.5,-0.5C 675.5,153.167 675.5,306.833 675.5,460.5C 450.167,460.5 224.833,460.5 -0.5,460.5C -0.5,306.833 -0.5,153.167 -0.5,-0.5 Z"/></g>
<g><path style="opacity:1" fill="#d0f8fd" d="M 271.5,47.5 C 266.256,46.1851 260.923,45.5185 255.5,45.5C 254.5,45.5 253.5,45.5 252.5,45.5C 244.01,44.3431 235.343,44.1764 226.5,45C 221.611,45.354 216.944,46.1873 212.5,47.5C 210.833,47.5 209.167,47.5 207.5,47.5C 209.305,45.8031 211.639,44.9698 214.5,45C 231.169,43.0214 247.835,43.0214 264.5,45C 267.361,44.9698 269.695,45.8031 271.5,47.5 Z"/></g>
<g><path style="opacity:1" fill="#5caad0" d="M 252.5,45.5 C 243.983,45.1739 235.65,45.5073 227.5,46.5C 222.537,47.254 217.537,47.5874 212.5,47.5C 216.944,46.1873 221.611,45.354 226.5,45C 235.343,44.1764 244.01,44.3431 252.5,45.5 Z"/></g>
<g><path style="opacity:1" fill="#09a5e8" d="M 227.5,46.5 C 235.65,45.5073 243.983,45.1739 252.5,45.5C 253.5,45.5 254.5,45.5 255.5,45.5C 256.552,47.256 258.219,47.9227 260.5,47.5C 259.294,48.8804 259.627,50.0471 261.5,51C 259.5,51.3333 257.5,51.6667 255.5,52C 257.246,52.4709 258.913,53.1376 260.5,54C 259.5,54.3333 258.5,54.6667 257.5,55C 258.61,57.7372 258.777,60.5706 258,63.5C 257.71,61.9559 257.044,60.6226 256,59.5C 255.5,66.1583 255.334,72.825 255.5,79.5C 253.833,79.5 252.167,79.5 250.5,79.5C 250.64,81.1238 249.973,82.2904 248.5,83C 250.878,83.5112 253.212,84.1779 255.5,85C 253.5,86.3333 251.5,87.6667 249.5,89C 242.148,89.5821 234.815,89.4155 227.5,88.5C 226.167,88.5 224.833,88.5 223.5,88.5C 223.5,88.1667 223.5,87.8333 223.5,87.5C 232.833,86.8333 232.833,86.1667 223.5,85.5C 223.5,84.1667 223.5,82.8333 223.5,81.5C 228.899,81.691 234.233,81.191 239.5,80C 235.789,79.8253 232.122,79.3253 228.5,78.5C 230.568,75.8433 231.901,72.8433 232.5,69.5C 237.766,66.2959 239.766,61.6293 238.5,55.5C 238.476,52.5794 238.143,49.746 237.5,47C 234.183,46.5017 230.85,46.335 227.5,46.5 Z"/></g>
<g><path style="opacity:1" fill="#c2f1fa" d="M 273.5,47.5 C 278.215,47.506 282.882,48.006 287.5,49C 294.412,51.288 301.412,53.288 308.5,55C 312.308,57.549 315.975,60.049 319.5,62.5C 304.643,55.7222 289.31,50.7222 273.5,47.5 Z"/></g>
<g><path style="opacity:1" fill="#0aacec" d="M 260.5,47.5 C 261.873,47.3433 263.207,47.51 264.5,48C 267.209,51.7183 270.709,52.5516 275,50.5C 281.633,52.7228 288.466,54.2228 295.5,55C 296.993,56.1562 296.826,56.9896 295,57.5C 292.567,56.5212 290.067,55.8545 287.5,55.5C 287.55,57.5901 286.55,58.9234 284.5,59.5C 282.071,58.6762 279.571,58.6762 277,59.5C 275.045,59.6406 273.545,60.474 272.5,62C 274.101,62.2734 275.601,62.7734 277,63.5C 281.049,62.3482 285.049,61.0148 289,59.5C 289.5,59.8333 290,60.1667 290.5,60.5C 286.599,62.9872 284.599,66.6539 284.5,71.5C 283.52,68.9135 283.187,66.2469 283.5,63.5C 282.5,63.5 281.5,63.5 280.5,63.5C 279.817,69.0341 281.151,74.0341 284.5,78.5C 285.325,79.3857 286.325,79.719 287.5,79.5C 287.5,77.5 287.5,75.5 287.5,73.5C 292.857,73.9958 293.524,75.8292 289.5,79C 290.116,80.4002 290.449,81.9002 290.5,83.5C 289.349,87.4372 288.516,91.4372 288,95.5C 287.535,96.9308 286.701,98.0975 285.5,99C 286.973,99.7096 287.64,100.876 287.5,102.5C 281.033,101.309 274.699,99.8087 268.5,98C 269.328,97.0853 270.328,96.4186 271.5,96C 267.179,95.501 262.846,95.3343 258.5,95.5C 248.149,92.7657 237.815,90.4324 227.5,88.5C 234.815,89.4155 242.148,89.5821 249.5,89C 251.5,87.6667 253.5,86.3333 255.5,85C 253.212,84.1779 250.878,83.5112 248.5,83C 249.973,82.2904 250.64,81.1238 250.5,79.5C 252.167,79.5 253.833,79.5 255.5,79.5C 255.334,72.825 255.5,66.1583 256,59.5C 257.044,60.6226 257.71,61.9559 258,63.5C 258.777,60.5706 258.61,57.7372 257.5,55C 258.5,54.6667 259.5,54.3333 260.5,54C 258.913,53.1376 257.246,52.4709 255.5,52C 257.5,51.6667 259.5,51.3333 261.5,51C 259.627,50.0471 259.294,48.8804 260.5,47.5 Z"/></g>
<g><path style="opacity:1" fill="#278fcf" d="M 207.5,48.5 C 208.552,48.3505 209.552,48.5172 210.5,49C 208.942,49.21 207.609,49.71 206.5,50.5C 204.217,50.6079 202.217,51.4412 200.5,53C 197.518,53.498 194.518,53.6646 191.5,53.5C 190.904,55.398 190.904,57.0646 191.5,58.5C 190.399,59.5983 189.066,59.765 187.5,59C 187.833,58.6667 188.167,58.3333 188.5,58C 187.57,57.0093 186.404,56.5093 185,56.5C 178.216,59.0684 171.383,61.4018 164.5,63.5C 177.788,56.0478 192.121,51.0478 207.5,48.5 Z"/></g>
<g><path style="opacity:1" fill="#0598e5" d="M 206.5,50.5 C 209.413,51.2411 212.413,51.7411 215.5,52C 216.333,52.8333 217.167,53.6667 218,54.5C 219.699,53.5939 221.533,53.2606 223.5,53.5C 223.5,55.1667 223.5,56.8333 223.5,58.5C 221.453,58.4889 219.453,58.1556 217.5,57.5C 215.618,58.5314 213.618,59.3647 211.5,60C 212.5,61 213.5,62 214.5,63C 213.527,68.4066 213.193,73.9066 213.5,79.5C 212.127,79.3433 210.793,79.51 209.5,80C 210.056,80.3826 210.389,80.8826 210.5,81.5C 205.68,81.2027 201.014,81.2027 196.5,81.5C 193.5,81 190.5,80.5 187.5,80C 189.81,79.5034 192.143,79.3367 194.5,79.5C 193.65,73.348 194.983,67.848 198.5,63C 195.876,62.4236 195.209,61.0902 196.5,59C 194.866,58.5065 193.199,58.3398 191.5,58.5C 190.904,57.0646 190.904,55.398 191.5,53.5C 194.518,53.6646 197.518,53.498 200.5,53C 202.217,51.4412 204.217,50.6079 206.5,50.5 Z"/></g>
<g><path style="opacity:1" fill="#0590e0" d="M 191.5,58.5 C 193.199,58.3398 194.866,58.5065 196.5,59C 195.209,61.0902 195.876,62.4236 198.5,63C 194.983,67.848 193.65,73.348 194.5,79.5C 192.143,79.3367 189.81,79.5034 187.5,80C 190.5,80.5 193.5,81 196.5,81.5C 201.014,81.2027 205.68,81.2027 210.5,81.5C 209.003,82.6043 207.336,83.6043 205.5,84.5C 200.991,85.0877 196.658,85.0877 192.5,84.5C 191.614,85.325 191.281,86.325 191.5,87.5C 180.819,89.514 170.153,92.1806 159.5,95.5C 159.5,94.5 159.5,93.5 159.5,92.5C 162.479,91.6827 165.479,90.8494 168.5,90C 166.009,89.3741 166.009,88.5407 168.5,87.5C 166.924,85.4229 164.924,83.9229 162.5,83C 164.788,82.0536 166.955,80.8869 169,79.5C 169.718,80.4506 170.551,80.6172 171.5,80C 172.554,77.6178 173.221,75.1178 173.5,72.5C 170.14,71.7904 168.307,73.1238 168,76.5C 166.681,74.5125 164.848,73.3459 162.5,73C 164.329,72.7265 165.829,71.8932 167,70.5C 167.333,70.8333 167.667,71.1667 168,71.5C 168.494,69.8659 168.66,68.1992 168.5,66.5C 164.822,66.7769 161.655,68.1102 159,70.5C 157.506,69.2528 156.006,69.2528 154.5,70.5C 156.184,71.8544 156.684,73.5211 156,75.5C 154.323,74.4841 152.657,73.4841 151,72.5C 148.659,73.0069 148.159,74.1735 149.5,76C 148.552,76.4828 147.552,76.6495 146.5,76.5C 145.609,75.8902 144.609,75.5569 143.5,75.5C 149.721,70.2202 156.721,66.2202 164.5,63.5C 171.383,61.4018 178.216,59.0684 185,56.5C 186.404,56.5093 187.57,57.0093 188.5,58C 188.167,58.3333 187.833,58.6667 187.5,59C 189.066,59.765 190.399,59.5983 191.5,58.5 Z"/></g>
<g><path style="opacity:1" fill="#11b1ed" d="M 255.5,45.5 C 260.923,45.5185 266.256,46.1851 271.5,47.5C 272.167,47.5 272.833,47.5 273.5,47.5C 289.31,50.7222 304.643,55.7222 319.5,62.5C 319.5,62.8333 319.5,63.1667 319.5,63.5C 319.626,65.1998 320.293,66.6998 321.5,68C 319.987,69.8792 319.321,72.0459 319.5,74.5C 320.5,74.5 321.5,74.5 322.5,74.5C 322.5,75.8333 322.5,77.1667 322.5,78.5C 321.5,78.5 320.5,78.5 319.5,78.5C 318.911,89.5058 318.244,100.506 317.5,111.5C 315.801,111.34 314.134,111.506 312.5,112C 313.766,112.309 314.933,112.809 316,113.5C 317.364,112.742 318.531,113.242 319.5,115C 318.552,115.483 317.552,115.649 316.5,115.5C 316.34,117.199 316.506,118.866 317,120.5C 318.706,121.308 319.539,122.641 319.5,124.5C 317.833,124.5 316.167,124.5 314.5,124.5C 308.504,119.834 302.171,115.668 295.5,112C 283.426,105.813 271.093,100.313 258.5,95.5C 262.846,95.3343 267.179,95.501 271.5,96C 270.328,96.4186 269.328,97.0853 268.5,98C 274.699,99.8087 281.033,101.309 287.5,102.5C 287.64,100.876 286.973,99.7096 285.5,99C 286.701,98.0975 287.535,96.9308 288,95.5C 288.516,91.4372 289.349,87.4372 290.5,83.5C 290.449,81.9002 290.116,80.4002 289.5,79C 293.524,75.8292 292.857,73.9958 287.5,73.5C 287.5,75.5 287.5,77.5 287.5,79.5C 286.325,79.719 285.325,79.3857 284.5,78.5C 281.151,74.0341 279.817,69.0341 280.5,63.5C 281.5,63.5 282.5,63.5 283.5,63.5C 283.187,66.2469 283.52,68.9135 284.5,71.5C 284.599,66.6539 286.599,62.9872 290.5,60.5C 290,60.1667 289.5,59.8333 289,59.5C 285.049,61.0148 281.049,62.3482 277,63.5C 275.601,62.7734 274.101,62.2734 272.5,62C 273.545,60.474 275.045,59.6406 277,59.5C 279.571,58.6762 282.071,58.6762 284.5,59.5C 286.55,58.9234 287.55,57.5901 287.5,55.5C 290.067,55.8545 292.567,56.5212 295,57.5C 296.826,56.9896 296.993,56.1562 295.5,55C 288.466,54.2228 281.633,52.7228 275,50.5C 270.709,52.5516 267.209,51.7183 264.5,48C 263.207,47.51 261.873,47.3433 260.5,47.5C 258.219,47.9227 256.552,47.256 255.5,45.5 Z"/></g>
<g><path style="opacity:1" fill="#089fe6" d="M 227.5,46.5 C 230.85,46.335 234.183,46.5017 237.5,47C 238.143,49.746 238.476,52.5794 238.5,55.5C 239.766,61.6293 237.766,66.2959 232.5,69.5C 231.901,72.8433 230.568,75.8433 228.5,78.5C 232.122,79.3253 235.789,79.8253 239.5,80C 234.233,81.191 228.899,81.691 223.5,81.5C 223.5,82.8333 223.5,84.1667 223.5,85.5C 232.833,86.1667 232.833,86.8333 223.5,87.5C 212.833,87.5 202.167,87.5 191.5,87.5C 191.281,86.325 191.614,85.325 192.5,84.5C 196.658,85.0877 200.991,85.0877 205.5,84.5C 207.336,83.6043 209.003,82.6043 210.5,81.5C 210.389,80.8826 210.056,80.3826 209.5,80C 210.793,79.51 212.127,79.3433 213.5,79.5C 213.193,73.9066 213.527,68.4066 214.5,63C 213.5,62 212.5,61 211.5,60C 213.618,59.3647 215.618,58.5314 217.5,57.5C 219.453,58.1556 221.453,58.4889 223.5,58.5C 223.5,56.8333 223.5,55.1667 223.5,53.5C 221.533,53.2606 219.699,53.5939 218,54.5C 217.167,53.6667 216.333,52.8333 215.5,52C 212.413,51.7411 209.413,51.2411 206.5,50.5C 207.609,49.71 208.942,49.21 210.5,49C 209.552,48.5172 208.552,48.3505 207.5,48.5C 207.5,48.1667 207.5,47.8333 207.5,47.5C 209.167,47.5 210.833,47.5 212.5,47.5C 217.537,47.5874 222.537,47.254 227.5,46.5 Z"/></g>
<g><path style="opacity:1" fill="#0287dd" d="M 159.5,95.5 C 154.333,98.1308 149,100.464 143.5,102.5C 145.792,100.235 148.459,98.2351 151.5,96.5C 152.063,95.0615 152.397,93.5615 152.5,92C 150.956,90.4868 149.622,87.4868 148.5,83C 148.748,81.2841 149.415,79.7841 150.5,78.5C 149.051,77.8281 147.718,77.1614 146.5,76.5C 147.552,76.6495 148.552,76.4828 149.5,76C 148.159,74.1735 148.659,73.0069 151,72.5C 152.657,73.4841 154.323,74.4841 156,75.5C 156.684,73.5211 156.184,71.8544 154.5,70.5C 156.006,69.2528 157.506,69.2528 159,70.5C 161.655,68.1102 164.822,66.7769 168.5,66.5C 168.66,68.1992 168.494,69.8659 168,71.5C 167.667,71.1667 167.333,70.8333 167,70.5C 165.829,71.8932 164.329,72.7265 162.5,73C 164.848,73.3459 166.681,74.5125 168,76.5C 168.307,73.1238 170.14,71.7904 173.5,72.5C 173.221,75.1178 172.554,77.6178 171.5,80C 170.551,80.6172 169.718,80.4506 169,79.5C 166.955,80.8869 164.788,82.0536 162.5,83C 164.924,83.9229 166.924,85.4229 168.5,87.5C 166.009,88.5407 166.009,89.3741 168.5,90C 165.479,90.8494 162.479,91.6827 159.5,92.5C 159.5,93.5 159.5,94.5 159.5,95.5 Z"/></g>
<g><path style="opacity:1" fill="#0eb7f1" d="M 319.5,63.5 C 326.595,65.9445 332.928,69.6111 338.5,74.5C 338.112,76.6847 337.112,78.518 335.5,80C 338.011,81.8536 339.344,84.3536 339.5,87.5C 342.563,87.1365 345.563,86.4698 348.5,85.5C 350.769,86.2033 352.769,87.3699 354.5,89C 355.337,90.0113 355.67,91.1779 355.5,92.5C 354.167,92.5 352.833,92.5 351.5,92.5C 351.5,91.1667 351.5,89.8333 351.5,88.5C 347.73,89.3967 344.23,91.0634 341,93.5C 339.701,90.9938 338.701,88.3272 338,85.5C 333.42,92.348 335.254,95.6813 343.5,95.5C 343.162,103.412 342.496,111.245 341.5,119C 342.832,122.69 341.832,125.69 338.5,128C 339.622,130.124 341.122,131.957 343,133.5C 343.667,134.167 343.667,134.833 343,135.5C 337.561,137.015 333.061,135.515 329.5,131C 327.259,131.271 325.259,130.271 323.5,128C 322.207,127.51 320.873,127.343 319.5,127.5C 319.5,126.5 319.5,125.5 319.5,124.5C 319.539,122.641 318.706,121.308 317,120.5C 316.506,118.866 316.34,117.199 316.5,115.5C 317.552,115.649 318.552,115.483 319.5,115C 318.531,113.242 317.364,112.742 316,113.5C 314.933,112.809 313.766,112.309 312.5,112C 314.134,111.506 315.801,111.34 317.5,111.5C 318.244,100.506 318.911,89.5058 319.5,78.5C 320.5,78.5 321.5,78.5 322.5,78.5C 322.5,77.1667 322.5,75.8333 322.5,74.5C 321.5,74.5 320.5,74.5 319.5,74.5C 319.321,72.0459 319.987,69.8792 321.5,68C 320.293,66.6998 319.626,65.1998 319.5,63.5 Z"/></g>
<g><path style="opacity:1" fill="#0481db" d="M 143.5,75.5 C 144.609,75.5569 145.609,75.8902 146.5,76.5C 147.718,77.1614 149.051,77.8281 150.5,78.5C 149.415,79.7841 148.748,81.2841 148.5,83C 149.622,87.4868 150.956,90.4868 152.5,92C 152.397,93.5615 152.063,95.0615 151.5,96.5C 148.459,98.2351 145.792,100.235 143.5,102.5C 138.455,106.022 133.122,109.022 127.5,111.5C 126.504,111.414 125.671,111.748 125,112.5C 124.71,110.956 124.044,109.623 123,108.5C 122.869,111.371 121.703,113.705 119.5,115.5C 119.833,116.167 120.167,116.833 120.5,117.5C 118.179,118.966 116.179,120.799 114.5,123C 112.866,123.494 111.199,123.66 109.5,123.5C 109.5,124.833 109.5,126.167 109.5,127.5C 106.924,128.107 104.591,129.274 102.5,131C 101.62,132.356 101.286,133.856 101.5,135.5C 100.178,135.33 99.0113,135.663 98,136.5C 96.6474,134.12 95.4808,131.62 94.5,129C 96.0126,124.809 98.1793,120.976 101,117.5C 102.11,115.963 103.61,115.297 105.5,115.5C 105.5,116.833 105.5,118.167 105.5,119.5C 106.833,119.5 108.167,119.5 109.5,119.5C 109.543,116.912 110.543,114.746 112.5,113C 112.167,112.667 111.833,112.333 111.5,112C 112.624,111.751 113.624,111.251 114.5,110.5C 113.277,109.386 111.944,109.219 110.5,110C 109.54,111.419 108.707,112.919 108,114.5C 107.075,113.953 106.242,113.287 105.5,112.5C 108.09,109.878 110.09,106.878 111.5,103.5C 115.167,99.5 118.833,95.5 122.5,91.5C 128.961,85.4388 135.961,80.1055 143.5,75.5 Z"/></g>
<g><path style="opacity:1" fill="#30bfed" d="M 191.5,87.5 C 202.167,87.5 212.833,87.5 223.5,87.5C 223.5,87.8333 223.5,88.1667 223.5,88.5C 214.494,88.3336 205.494,88.5002 196.5,89C 202.167,89.3333 207.833,89.6667 213.5,90C 214.416,90.2784 215.082,90.7784 215.5,91.5C 205.494,91.3335 195.494,91.5002 185.5,92C 176.498,93.215 167.831,95.3816 159.5,98.5C 148.3,102.434 137.634,107.434 127.5,113.5C 127.5,112.833 127.5,112.167 127.5,111.5C 133.122,109.022 138.455,106.022 143.5,102.5C 149,100.464 154.333,98.1308 159.5,95.5C 170.153,92.1806 180.819,89.514 191.5,87.5 Z"/></g>
<g><path style="opacity:1" fill="#034e93" d="M 215.5,91.5 C 238.958,92.7503 260.625,99.417 280.5,111.5C 279.069,111.881 278.236,112.881 278,114.5C 274.667,113.833 271.333,113.167 268,112.5C 265.075,113.323 262.242,112.823 259.5,111C 260.784,110.316 261.951,110.483 263,111.5C 265.096,110.285 264.929,109.451 262.5,109C 263.448,108.517 264.448,108.351 265.5,108.5C 264.999,105.822 263.499,103.822 261,102.5C 259.75,103.573 258.416,103.573 257,102.5C 255.024,104.956 252.857,105.123 250.5,103C 252.271,102.465 252.604,101.631 251.5,100.5C 250.088,99.1936 248.421,98.3603 246.5,98C 240.468,97.4732 234.468,97.1399 228.5,97C 229.051,98.3985 229.384,99.7318 229.5,101C 218.144,100.956 206.81,100.456 195.5,99.5C 193.974,99.9943 192.641,100.661 191.5,101.5C 186.294,102.492 180.961,103.492 175.5,104.5C 166.247,103.578 166.247,102.578 175.5,101.5C 175.5,100.167 175.5,98.8333 175.5,97.5C 170.178,97.9801 164.845,98.3135 159.5,98.5C 167.831,95.3816 176.498,93.215 185.5,92C 195.494,91.5002 205.494,91.3335 215.5,91.5 Z"/></g>
<g><path style="opacity:1" fill="#0354a1" d="M 280.5,111.5 C 280.833,111.5 281.167,111.5 281.5,111.5C 281.414,112.496 281.748,113.329 282.5,114C 279.614,114.606 277.448,116.106 276,118.5C 274.644,117.62 273.144,117.286 271.5,117.5C 255.109,109.259 237.776,104.259 219.5,102.5C 210.199,101.613 200.866,101.279 191.5,101.5C 192.641,100.661 193.974,99.9943 195.5,99.5C 206.81,100.456 218.144,100.956 229.5,101C 229.384,99.7318 229.051,98.3985 228.5,97C 234.468,97.1399 240.468,97.4732 246.5,98C 248.421,98.3603 250.088,99.1936 251.5,100.5C 252.604,101.631 252.271,102.465 250.5,103C 252.857,105.123 255.024,104.956 257,102.5C 258.416,103.573 259.75,103.573 261,102.5C 263.499,103.822 264.999,105.822 265.5,108.5C 264.448,108.351 263.448,108.517 262.5,109C 264.929,109.451 265.096,110.285 263,111.5C 261.951,110.483 260.784,110.316 259.5,111C 262.242,112.823 265.075,113.323 268,112.5C 271.333,113.167 274.667,113.833 278,114.5C 278.236,112.881 279.069,111.881 280.5,111.5 Z"/></g>
<g><path style="opacity:1" fill="#12bdf2" d="M 338.5,74.5 C 349.519,80.5037 359.186,88.1704 367.5,97.5C 367.955,99.3666 368.622,101.2 369.5,103C 368.768,107.115 367.934,107.282 367,103.5C 364.961,106.403 365.627,108.737 369,110.5C 370.353,109.315 371.52,107.981 372.5,106.5C 374.797,110.284 377.13,114.117 379.5,118C 378.07,119.44 376.403,119.774 374.5,119C 373.406,117.22 372.406,115.386 371.5,113.5C 369.954,114.212 368.954,115.378 368.5,117C 369.414,118.406 370.08,119.906 370.5,121.5C 370.5,122.5 370.5,123.5 370.5,124.5C 369.5,124.5 368.5,124.5 367.5,124.5C 369.908,131.438 370.075,138.438 368,145.5C 367.612,144.572 366.945,143.905 366,143.5C 361.489,145.92 356.655,146.92 351.5,146.5C 351.5,145.5 351.5,144.5 351.5,143.5C 348.833,143.5 346.167,143.5 343.5,143.5C 333.066,138.41 323.399,132.077 314.5,124.5C 316.167,124.5 317.833,124.5 319.5,124.5C 319.5,125.5 319.5,126.5 319.5,127.5C 320.873,127.343 322.207,127.51 323.5,128C 325.259,130.271 327.259,131.271 329.5,131C 333.061,135.515 337.561,137.015 343,135.5C 343.667,134.833 343.667,134.167 343,133.5C 341.122,131.957 339.622,130.124 338.5,128C 341.832,125.69 342.832,122.69 341.5,119C 342.496,111.245 343.162,103.412 343.5,95.5C 335.254,95.6813 333.42,92.348 338,85.5C 338.701,88.3272 339.701,90.9938 341,93.5C 344.23,91.0634 347.73,89.3967 351.5,88.5C 351.5,89.8333 351.5,91.1667 351.5,92.5C 352.833,92.5 354.167,92.5 355.5,92.5C 355.67,91.1779 355.337,90.0113 354.5,89C 352.769,87.3699 350.769,86.2033 348.5,85.5C 345.563,86.4698 342.563,87.1365 339.5,87.5C 339.344,84.3536 338.011,81.8536 335.5,80C 337.112,78.518 338.112,76.6847 338.5,74.5 Z"/></g>
<g><path style="opacity:1" fill="#044285" d="M 175.5,104.5 C 168.228,106.99 160.895,109.49 153.5,112C 152.058,112.377 151.058,113.21 150.5,114.5C 147.173,115.537 143.839,116.704 140.5,118C 135.426,120.253 131.093,123.42 127.5,127.5C 124.393,127.174 122.06,128.341 120.5,131C 115.578,132.341 112.578,135.508 111.5,140.5C 109.801,140.66 108.134,140.494 106.5,140C 106.026,138.271 105.026,137.105 103.5,136.5C 105.243,133.25 107.577,130.416 110.5,128C 116.064,122.927 121.731,118.094 127.5,113.5C 137.634,107.434 148.3,102.434 159.5,98.5C 164.845,98.3135 170.178,97.9801 175.5,97.5C 175.5,98.8333 175.5,100.167 175.5,101.5C 166.247,102.578 166.247,103.578 175.5,104.5 Z"/></g>
<g><path style="opacity:1" fill="#21d6f8" d="M 223.5,88.5 C 224.833,88.5 226.167,88.5 227.5,88.5C 237.815,90.4324 248.149,92.7657 258.5,95.5C 271.093,100.313 283.426,105.813 295.5,112C 302.171,115.668 308.504,119.834 314.5,124.5C 323.399,132.077 333.066,138.41 343.5,143.5C 345.474,144.906 347.474,146.406 349.5,148C 356.12,150.458 362.787,152.791 369.5,155C 374.705,155.241 379.872,155.741 385,156.5C 389.835,154.992 394.669,153.992 399.5,153.5C 400.725,152.848 401.392,151.681 401.5,150C 400.582,147.239 399.916,144.406 399.5,141.5C 402.652,144.956 403.986,148.956 403.5,153.5C 397.226,157.802 390.559,161.135 383.5,163.5C 382.5,163.5 381.5,163.5 380.5,163.5C 373.132,163.024 365.799,161.69 358.5,159.5C 351.993,157.25 345.66,154.417 339.5,151C 326.635,142.734 314.301,133.734 302.5,124C 295.803,119.318 288.803,115.152 281.5,111.5C 281.167,111.5 280.833,111.5 280.5,111.5C 260.625,99.417 238.958,92.7503 215.5,91.5C 215.082,90.7784 214.416,90.2784 213.5,90C 207.833,89.6667 202.167,89.3333 196.5,89C 205.494,88.5002 214.494,88.3336 223.5,88.5 Z"/></g>
<g><path style="opacity:1" fill="#0865c1" d="M 191.5,101.5 C 200.866,101.279 210.199,101.613 219.5,102.5C 204.461,102.583 189.461,104.25 174.5,107.5C 172.151,108.425 172.317,109.425 175,110.5C 175.498,113.482 175.665,116.482 175.5,119.5C 176.833,119.5 178.167,119.5 179.5,119.5C 179.5,122.167 179.5,124.833 179.5,127.5C 180.552,127.351 181.552,127.517 182.5,128C 181.328,128.419 180.328,129.085 179.5,130C 181.439,130.908 182.439,132.408 182.5,134.5C 183.833,134.5 185.167,134.5 186.5,134.5C 186.297,132.362 185.297,130.695 183.5,129.5C 184.167,129.167 184.833,128.833 185.5,128.5C 190.111,127.986 194.777,127.986 199.5,128.5C 190.547,132.978 181.88,137.978 173.5,143.5C 169.838,142.637 167.672,143.97 167,147.5C 166.329,146.748 165.496,146.414 164.5,146.5C 165.32,142.855 163.987,140.522 160.5,139.5C 159.167,137.833 159.167,136.167 160.5,134.5C 163.755,135.781 166.922,136.447 170,136.5C 170.494,134.866 170.66,133.199 170.5,131.5C 164.339,131.88 160.673,129.214 159.5,123.5C 154.536,124.595 149.536,125.095 144.5,125C 143.62,123.644 143.286,122.144 143.5,120.5C 142.448,120.649 141.448,120.483 140.5,120C 143.471,119.206 146.471,118.539 149.5,118C 150.167,117 150.833,116 151.5,115C 151.272,114.601 150.938,114.435 150.5,114.5C 151.058,113.21 152.058,112.377 153.5,112C 160.895,109.49 168.228,106.99 175.5,104.5C 180.961,103.492 186.294,102.492 191.5,101.5 Z"/></g>
<g><path style="opacity:1" fill="#d8edf6" d="M 122.5,91.5 C 118.833,95.5 115.167,99.5 111.5,103.5C 109.537,104.96 107.704,106.627 106,108.5C 99.2312,117.725 92.7312,127.058 86.5,136.5C 89.7608,129.267 93.0942,122.1 96.5,115C 94.7536,114.529 93.087,113.862 91.5,113C 92.4296,112.009 93.5962,111.509 95,111.5C 96.8001,112.378 98.6334,113.045 100.5,113.5C 100.714,111.856 100.38,110.356 99.5,109C 100.667,108.5 101.5,107.667 102,106.5C 102.423,107.956 103.256,108.456 104.5,108C 106.414,106.587 107.747,104.753 108.5,102.5C 109.325,101.614 110.325,101.281 111.5,101.5C 111.281,100.325 111.614,99.325 112.5,98.5C 115.311,96.8563 117.644,94.6897 119.5,92C 120.448,91.5172 121.448,91.3505 122.5,91.5 Z"/></g>
<g><path style="opacity:1" fill="#046acb" d="M 219.5,102.5 C 237.776,104.259 255.109,109.259 271.5,117.5C 275.025,118.939 278.358,120.939 281.5,123.5C 280.504,123.414 279.671,123.748 279,124.5C 271.294,122.808 263.461,121.808 255.5,121.5C 254.048,120.698 252.382,120.198 250.5,120C 238.738,119.065 227.072,119.732 215.5,122C 213.68,122.2 212.347,123.034 211.5,124.5C 207.775,126.347 203.775,127.681 199.5,128.5C 194.777,127.986 190.111,127.986 185.5,128.5C 184.833,128.833 184.167,129.167 183.5,129.5C 185.297,130.695 186.297,132.362 186.5,134.5C 185.167,134.5 183.833,134.5 182.5,134.5C 182.439,132.408 181.439,130.908 179.5,130C 180.328,129.085 181.328,128.419 182.5,128C 181.552,127.517 180.552,127.351 179.5,127.5C 179.5,124.833 179.5,122.167 179.5,119.5C 178.167,119.5 176.833,119.5 175.5,119.5C 175.665,116.482 175.498,113.482 175,110.5C 172.317,109.425 172.151,108.425 174.5,107.5C 189.461,104.25 204.461,102.583 219.5,102.5 Z"/></g>
<g><path style="opacity:1" fill="#0fc5f6" d="M 399.5,153.5 C 394.669,153.992 389.835,154.992 385,156.5C 379.872,155.741 374.705,155.241 369.5,155C 362.787,152.791 356.12,150.458 349.5,148C 347.474,146.406 345.474,144.906 343.5,143.5C 346.167,143.5 348.833,143.5 351.5,143.5C 351.5,144.5 351.5,145.5 351.5,146.5C 356.655,146.92 361.489,145.92 366,143.5C 366.945,143.905 367.612,144.572 368,145.5C 370.075,138.438 369.908,131.438 367.5,124.5C 368.5,124.5 369.5,124.5 370.5,124.5C 370.5,123.5 370.5,122.5 370.5,121.5C 372.49,123.598 374.657,125.598 377,127.5C 378.727,127.354 378.894,126.687 377.5,125.5C 379.287,124.684 380.954,123.684 382.5,122.5C 382.291,121.914 381.957,121.414 381.5,121C 382.793,120.51 384.127,120.343 385.5,120.5C 385.771,122.821 385.104,124.821 383.5,126.5C 385.104,128.179 385.771,130.179 385.5,132.5C 391.032,131.935 392.032,133.768 388.5,138C 389.861,139.584 390.528,141.418 390.5,143.5C 391.552,143.351 392.552,143.517 393.5,144C 392.026,145.316 390.359,146.316 388.5,147C 389.167,147.333 389.833,147.667 390.5,148C 389.167,148.667 389.167,149.333 390.5,150C 391.416,150.374 392.25,150.874 393,151.5C 395.041,150.577 397.208,150.244 399.5,150.5C 399.5,151.5 399.5,152.5 399.5,153.5 Z"/></g>
<g><path style="opacity:1" fill="#1ec5ef" d="M 367.5,97.5 C 372.83,101.997 377.663,106.997 382,112.5C 387.857,121.565 393.691,130.565 399.5,139.5C 399.5,140.167 399.5,140.833 399.5,141.5C 399.916,144.406 400.582,147.239 401.5,150C 401.392,151.681 400.725,152.848 399.5,153.5C 399.5,152.5 399.5,151.5 399.5,150.5C 397.208,150.244 395.041,150.577 393,151.5C 392.25,150.874 391.416,150.374 390.5,150C 389.167,149.333 389.167,148.667 390.5,148C 389.833,147.667 389.167,147.333 388.5,147C 390.359,146.316 392.026,145.316 393.5,144C 392.552,143.517 391.552,143.351 390.5,143.5C 390.528,141.418 389.861,139.584 388.5,138C 392.032,133.768 391.032,131.935 385.5,132.5C 385.771,130.179 385.104,128.179 383.5,126.5C 385.104,124.821 385.771,122.821 385.5,120.5C 384.127,120.343 382.793,120.51 381.5,121C 381.957,121.414 382.291,121.914 382.5,122.5C 380.954,123.684 379.287,124.684 377.5,125.5C 378.894,126.687 378.727,127.354 377,127.5C 374.657,125.598 372.49,123.598 370.5,121.5C 370.08,119.906 369.414,118.406 368.5,117C 368.954,115.378 369.954,114.212 371.5,113.5C 372.406,115.386 373.406,117.22 374.5,119C 376.403,119.774 378.07,119.44 379.5,118C 377.13,114.117 374.797,110.284 372.5,106.5C 371.52,107.981 370.353,109.315 369,110.5C 365.627,108.737 364.961,106.403 367,103.5C 367.934,107.282 368.768,107.115 369.5,103C 368.622,101.2 367.955,99.3666 367.5,97.5 Z"/></g>
<g><path style="opacity:1" fill="#2569ad" d="M 255.5,121.5 C 240.675,120.815 226.008,121.815 211.5,124.5C 212.347,123.034 213.68,122.2 215.5,122C 227.072,119.732 238.738,119.065 250.5,120C 252.382,120.198 254.048,120.698 255.5,121.5 Z"/></g>
<g><path style="opacity:1" fill="#1f6cba" d="M 255.5,121.5 C 263.461,121.808 271.294,122.808 279,124.5C 279.671,123.748 280.504,123.414 281.5,123.5C 289.382,126.442 296.715,130.442 303.5,135.5C 305.689,137.887 307.356,140.553 308.5,143.5C 292.349,132.306 274.682,124.973 255.5,121.5 Z"/></g>
<g><path style="opacity:1" fill="#1980d0" d="M 111.5,103.5 C 110.09,106.878 108.09,109.878 105.5,112.5C 106.242,113.287 107.075,113.953 108,114.5C 108.707,112.919 109.54,111.419 110.5,110C 111.944,109.219 113.277,109.386 114.5,110.5C 113.624,111.251 112.624,111.751 111.5,112C 111.833,112.333 112.167,112.667 112.5,113C 110.543,114.746 109.543,116.912 109.5,119.5C 108.167,119.5 106.833,119.5 105.5,119.5C 105.5,118.167 105.5,116.833 105.5,115.5C 103.61,115.297 102.11,115.963 101,117.5C 98.1793,120.976 96.0126,124.809 94.5,129C 95.4808,131.62 96.6474,134.12 98,136.5C 99.0113,135.663 100.178,135.33 101.5,135.5C 101.286,133.856 101.62,132.356 102.5,131C 104.591,129.274 106.924,128.107 109.5,127.5C 109.5,126.167 109.5,124.833 109.5,123.5C 111.199,123.66 112.866,123.494 114.5,123C 116.179,120.799 118.179,118.966 120.5,117.5C 120.167,116.833 119.833,116.167 119.5,115.5C 121.703,113.705 122.869,111.371 123,108.5C 124.044,109.623 124.71,110.956 125,112.5C 125.671,111.748 126.504,111.414 127.5,111.5C 127.5,112.167 127.5,112.833 127.5,113.5C 121.731,118.094 116.064,122.927 110.5,128C 107.577,130.416 105.243,133.25 103.5,136.5C 99.3671,140.121 95.7004,144.121 92.5,148.5C 92.4208,147.07 92.7542,145.736 93.5,144.5C 92.3112,143.571 90.9778,143.238 89.5,143.5C 89.5,142.5 89.5,141.5 89.5,140.5C 88.5,140.5 87.5,140.5 86.5,140.5C 85.0397,144.194 83.373,147.861 81.5,151.5C 81.0431,152.298 80.3764,152.631 79.5,152.5C 79.5,151.833 79.5,151.167 79.5,150.5C 82.3411,146.151 84.6745,141.484 86.5,136.5C 92.7312,127.058 99.2312,117.725 106,108.5C 107.704,106.627 109.537,104.96 111.5,103.5 Z"/></g>
<g><path style="opacity:1" fill="#095aa0" d="M 281.5,111.5 C 288.803,115.152 295.803,119.318 302.5,124C 314.301,133.734 326.635,142.734 339.5,151C 345.66,154.417 351.993,157.25 358.5,159.5C 358.953,160.458 359.619,161.292 360.5,162C 358.19,162.497 355.857,162.663 353.5,162.5C 336.91,159.699 321.91,153.365 308.5,143.5C 307.356,140.553 305.689,137.887 303.5,135.5C 296.715,130.442 289.382,126.442 281.5,123.5C 278.358,120.939 275.025,118.939 271.5,117.5C 273.144,117.286 274.644,117.62 276,118.5C 277.448,116.106 279.614,114.606 282.5,114C 281.748,113.329 281.414,112.496 281.5,111.5 Z"/></g>
<g><path style="opacity:1" fill="#0a5db8" d="M 150.5,114.5 C 150.938,114.435 151.272,114.601 151.5,115C 150.833,116 150.167,117 149.5,118C 146.471,118.539 143.471,119.206 140.5,120C 141.448,120.483 142.448,120.649 143.5,120.5C 143.286,122.144 143.62,123.644 144.5,125C 149.536,125.095 154.536,124.595 159.5,123.5C 160.673,129.214 164.339,131.88 170.5,131.5C 170.66,133.199 170.494,134.866 170,136.5C 166.922,136.447 163.755,135.781 160.5,134.5C 159.167,136.167 159.167,137.833 160.5,139.5C 163.987,140.522 165.32,142.855 164.5,146.5C 163.5,146.5 162.5,146.5 161.5,146.5C 161.833,148.5 162.167,150.5 162.5,152.5C 160.5,152.833 158.5,153.167 156.5,153.5C 155.833,156.167 155.167,158.833 154.5,161.5C 153.167,161.5 151.833,161.5 150.5,161.5C 150.657,162.873 150.49,164.207 150,165.5C 144.017,172.967 139.85,181.3 137.5,190.5C 137.5,191.167 137.167,191.5 136.5,191.5C 135.833,191.5 135.167,191.5 134.5,191.5C 132.224,191.756 131.057,193.09 131,195.5C 130.5,194.5 130,193.5 129.5,192.5C 130.58,189.668 131.58,186.835 132.5,184C 129.003,182.677 127.336,180.177 127.5,176.5C 128.042,173.312 129.042,170.312 130.5,167.5C 129.5,167.5 128.5,167.5 127.5,167.5C 127.5,164.833 127.5,162.167 127.5,159.5C 122.882,160.025 121.882,158.692 124.5,155.5C 123.027,153.605 121.36,151.939 119.5,150.5C 120.167,149.833 120.833,149.167 121.5,148.5C 119.951,142.234 116.451,140.9 111,144.5C 110.601,144.272 110.435,143.938 110.5,143.5C 115.537,137.462 121.203,132.129 127.5,127.5C 131.093,123.42 135.426,120.253 140.5,118C 143.839,116.704 147.173,115.537 150.5,114.5 Z"/></g>
<g><path style="opacity:1" fill="#397fbe" d="M 79.5,152.5 C 77.9487,160.262 76.282,167.929 74.5,175.5C 73.5,175.5 72.5,175.5 71.5,175.5C 73.0118,167.292 75.6785,159.626 79.5,152.5 Z"/></g>
<g><path style="opacity:1" fill="#c6f4fb" d="M 399.5,139.5 C 400.822,139.33 401.989,139.663 403,140.5C 404.745,145.386 405.412,150.386 405,155.5C 398.476,159.848 391.309,162.515 383.5,163.5C 390.559,161.135 397.226,157.802 403.5,153.5C 403.986,148.956 402.652,144.956 399.5,141.5C 399.5,140.833 399.5,140.167 399.5,139.5 Z"/></g>
<g><path style="opacity:1" fill="#245ea5" d="M 173.5,143.5 C 157.67,156.318 145.67,171.984 137.5,190.5C 139.85,181.3 144.017,172.967 150,165.5C 150.49,164.207 150.657,162.873 150.5,161.5C 151.833,161.5 153.167,161.5 154.5,161.5C 155.167,158.833 155.833,156.167 156.5,153.5C 158.5,153.167 160.5,152.833 162.5,152.5C 162.167,150.5 161.833,148.5 161.5,146.5C 162.5,146.5 163.5,146.5 164.5,146.5C 165.496,146.414 166.329,146.748 167,147.5C 167.672,143.97 169.838,142.637 173.5,143.5 Z"/></g>
<g><path style="opacity:1" fill="#327397" d="M 358.5,159.5 C 365.799,161.69 373.132,163.024 380.5,163.5C 371.286,165.108 362.286,164.775 353.5,162.5C 355.857,162.663 358.19,162.497 360.5,162C 359.619,161.292 358.953,160.458 358.5,159.5 Z"/></g>
<g><path style="opacity:1" fill="#0c78d1" d="M 92.5,148.5 C 79.4983,169.175 70.8316,191.509 66.5,215.5C 66.3343,211.154 66.501,206.821 67,202.5C 68.949,193.503 70.449,184.503 71.5,175.5C 72.5,175.5 73.5,175.5 74.5,175.5C 76.282,167.929 77.9487,160.262 79.5,152.5C 80.3764,152.631 81.0431,152.298 81.5,151.5C 83.373,147.861 85.0397,144.194 86.5,140.5C 87.5,140.5 88.5,140.5 89.5,140.5C 89.5,141.5 89.5,142.5 89.5,143.5C 90.9778,143.238 92.3112,143.571 93.5,144.5C 92.7542,145.736 92.4208,147.07 92.5,148.5 Z"/></g>
<g><path style="opacity:1" fill="#d2ebf9" d="M 79.5,150.5 C 79.5,151.167 79.5,151.833 79.5,152.5C 75.6785,159.626 73.0118,167.292 71.5,175.5C 69.1455,183.245 67.3122,191.245 66,199.5C 65.1723,214.672 65.3389,229.672 66.5,244.5C 66.9926,246.806 67.3259,249.139 67.5,251.5C 66.8423,250.602 66.1757,249.602 65.5,248.5C 63.6904,233.211 63.1904,217.878 64,202.5C 66.8641,185.835 70.8641,169.502 76,153.5C 76.7589,151.937 77.9256,150.937 79.5,150.5 Z"/></g>
<g><path style="opacity:1" fill="#0f53ac" d="M 134.5,191.5 C 134.575,195.981 133.908,200.314 132.5,204.5C 130.865,210.736 129.865,217.069 129.5,223.5C 129.167,223.5 128.833,223.5 128.5,223.5C 128.543,219.107 128.043,218.774 127,222.5C 124.33,220.995 122.164,218.995 120.5,216.5C 117.788,218.26 114.788,218.927 111.5,218.5C 111.5,220.167 111.5,221.833 111.5,223.5C 110.167,223.5 108.833,223.5 107.5,223.5C 107.5,224.5 107.5,225.5 107.5,226.5C 105.328,225.199 102.995,224.199 100.5,223.5C 100.5,220.833 100.5,218.167 100.5,215.5C 103.85,215.665 107.183,215.498 110.5,215C 109.115,212.415 109.782,210.415 112.5,209C 111.312,203.128 110.312,203.295 109.5,209.5C 107.5,208.833 105.5,208.167 103.5,207.5C 103.5,204.833 103.5,202.167 103.5,199.5C 107.133,199.557 107.3,198.557 104,196.5C 103.506,194.866 103.34,193.199 103.5,191.5C 97.7073,188.585 95.0406,190.585 95.5,197.5C 92.3443,197.471 90.6777,195.804 90.5,192.5C 88.4453,191.813 86.7786,190.646 85.5,189C 87.527,186.973 89.527,184.973 91.5,183C 89.3883,181.555 87.2216,181.722 85,183.5C 84.7411,187.034 83.2411,189.7 80.5,191.5C 84.8933,178.615 91.06,166.615 99,155.5C 102.385,150.951 106.218,146.951 110.5,143.5C 110.435,143.938 110.601,144.272 111,144.5C 116.451,140.9 119.951,142.234 121.5,148.5C 120.833,149.167 120.167,149.833 119.5,150.5C 121.36,151.939 123.027,153.605 124.5,155.5C 121.882,158.692 122.882,160.025 127.5,159.5C 127.5,162.167 127.5,164.833 127.5,167.5C 128.5,167.5 129.5,167.5 130.5,167.5C 129.042,170.312 128.042,173.312 127.5,176.5C 127.336,180.177 129.003,182.677 132.5,184C 131.58,186.835 130.58,189.668 129.5,192.5C 130,193.5 130.5,194.5 131,195.5C 131.057,193.09 132.224,191.756 134.5,191.5 Z"/></g>
<g><path style="opacity:1" fill="#104da5" d="M 128.5,223.5 C 127.345,230.321 127.179,237.321 128,244.5C 128.362,249.187 129.529,253.52 131.5,257.5C 131.5,257.833 131.5,258.167 131.5,258.5C 132.911,265.395 134.911,272.061 137.5,278.5C 136.054,281.127 134.387,283.794 132.5,286.5C 133.992,296.62 133.326,306.62 130.5,316.5C 129.443,314.997 128.776,313.33 128.5,311.5C 131.941,302.637 131.941,293.304 128.5,283.5C 129.5,283.5 130.5,283.5 131.5,283.5C 131.5,281.167 131.5,278.833 131.5,276.5C 130.5,276.5 129.5,276.5 128.5,276.5C 128.326,279.874 127.826,283.207 127,286.5C 122,281.833 117,277.167 112,272.5C 110.306,274.656 108.473,274.489 106.5,272C 110.152,271.501 113.818,271.335 117.5,271.5C 115.591,267.511 113.591,263.511 111.5,259.5C 111.649,257.68 112.316,256.18 113.5,255C 110.408,250.822 108.408,250.989 107.5,255.5C 105.497,253.867 104.164,251.867 103.5,249.5C 101.712,249.785 100.045,249.452 98.5,248.5C 99.7625,245.72 98.7625,244.054 95.5,243.5C 96.7366,242.719 97.7366,241.719 98.5,240.5C 95.9135,239.52 93.2469,239.187 90.5,239.5C 89.6576,234.213 89.3243,228.88 89.5,223.5C 88.1667,223.5 86.8333,223.5 85.5,223.5C 85.1377,217.747 84.1377,217.414 82.5,222.5C 81.675,223.386 80.675,223.719 79.5,223.5C 79.0471,220.348 80.0471,217.848 82.5,216C 80.4295,215.621 78.9295,216.455 78,218.5C 77.6667,226.5 77.3333,234.5 77,242.5C 76.586,242.957 76.086,243.291 75.5,243.5C 74.7379,242.372 74.0712,241.205 73.5,240C 74.1371,237.757 74.4704,235.424 74.5,233C 74.6678,229.619 74.0011,226.453 72.5,223.5C 71.1623,234.194 69.829,244.86 68.5,255.5C 67.5655,254.432 67.2322,253.099 67.5,251.5C 68.6245,234.327 71.4578,217.327 76,200.5C 77.6519,197.492 79.1519,194.492 80.5,191.5C 83.2411,189.7 84.7411,187.034 85,183.5C 87.2216,181.722 89.3883,181.555 91.5,183C 89.527,184.973 87.527,186.973 85.5,189C 86.7786,190.646 88.4453,191.813 90.5,192.5C 90.6777,195.804 92.3443,197.471 95.5,197.5C 95.0406,190.585 97.7073,188.585 103.5,191.5C 103.34,193.199 103.506,194.866 104,196.5C 107.3,198.557 107.133,199.557 103.5,199.5C 103.5,202.167 103.5,204.833 103.5,207.5C 105.5,208.167 107.5,208.833 109.5,209.5C 110.312,203.295 111.312,203.128 112.5,209C 109.782,210.415 109.115,212.415 110.5,215C 107.183,215.498 103.85,215.665 100.5,215.5C 100.5,218.167 100.5,220.833 100.5,223.5C 102.995,224.199 105.328,225.199 107.5,226.5C 107.5,225.5 107.5,224.5 107.5,223.5C 108.833,223.5 110.167,223.5 111.5,223.5C 111.5,221.833 111.5,220.167 111.5,218.5C 114.788,218.927 117.788,218.26 120.5,216.5C 122.164,218.995 124.33,220.995 127,222.5C 128.043,218.774 128.543,219.107 128.5,223.5 Z"/></g>
<g><path style="opacity:1" fill="#033475" d="M 127.5,127.5 C 121.203,132.129 115.537,137.462 110.5,143.5C 106.218,146.951 102.385,150.951 99,155.5C 91.06,166.615 84.8933,178.615 80.5,191.5C 79.1519,194.492 77.6519,197.492 76,200.5C 71.4578,217.327 68.6245,234.327 67.5,251.5C 67.3259,249.139 66.9926,246.806 66.5,244.5C 66.5,234.833 66.5,225.167 66.5,215.5C 70.8316,191.509 79.4983,169.175 92.5,148.5C 95.7004,144.121 99.3671,140.121 103.5,136.5C 105.026,137.105 106.026,138.271 106.5,140C 108.134,140.494 109.801,140.66 111.5,140.5C 112.578,135.508 115.578,132.341 120.5,131C 122.06,128.341 124.393,127.174 127.5,127.5 Z"/></g>
<g><path style="opacity:1" fill="#344869" d="M 326.5,218.5 C 326.167,218.5 325.833,218.5 325.5,218.5C 325.5,210.167 325.5,201.833 325.5,193.5C 322.5,193.5 319.5,193.5 316.5,193.5C 316.5,217.5 316.5,241.5 316.5,265.5C 315.502,241.339 315.169,217.006 315.5,192.5C 319.167,192.5 322.833,192.5 326.5,192.5C 326.5,201.167 326.5,209.833 326.5,218.5 Z"/></g>
<g><path style="opacity:1" fill="#07214f" d="M 325.5,218.5 C 324.508,211.018 324.175,203.352 324.5,195.5C 321.989,195.699 319.822,196.032 318,196.5C 317.5,218.831 317.333,241.164 317.5,263.5C 320.119,263.768 322.619,263.435 325,262.5C 325.388,251.153 325.388,239.82 325,228.5C 326.574,225.423 329.074,223.757 332.5,223.5C 330.645,225.033 328.812,226.7 327,228.5C 326.5,240.829 326.333,253.162 326.5,265.5C 323.167,265.5 319.833,265.5 316.5,265.5C 316.5,241.5 316.5,217.5 316.5,193.5C 319.5,193.5 322.5,193.5 325.5,193.5C 325.5,201.833 325.5,210.167 325.5,218.5 Z"/></g>
<g><path style="opacity:1" fill="#34609b" d="M 134.5,191.5 C 135.167,191.5 135.833,191.5 136.5,191.5C 136.161,196.246 134.828,200.58 132.5,204.5C 133.908,200.314 134.575,195.981 134.5,191.5 Z"/></g>
<g><path style="opacity:1" fill="#57b2d9" d="M 469.5,192.5 C 473.5,192.5 477.5,192.5 481.5,192.5C 481.5,200.5 481.5,208.5 481.5,216.5C 481.167,216.5 480.833,216.5 480.5,216.5C 479.9,209.19 479.233,201.856 478.5,194.5C 476.253,193.626 473.92,193.292 471.5,193.5C 471.01,203.494 470.677,213.494 470.5,223.5C 470.5,236.5 470.5,249.5 470.5,262.5C 469.502,239.339 469.169,216.006 469.5,192.5 Z"/></g>
<g><path style="opacity:1" fill="#384a6c" d="M 442.5,199.5 C 439.713,200.477 436.713,200.81 433.5,200.5C 433.818,205.032 433.485,209.366 432.5,213.5C 432.5,208.833 432.5,204.167 432.5,199.5C 435.833,199.5 439.167,199.5 442.5,199.5 Z"/></g>
<g><path style="opacity:1" fill="#03a5ed" d="M 480.5,216.5 C 481.964,219.523 484.297,220.19 487.5,218.5C 487.5,219.5 487.5,220.5 487.5,221.5C 484.315,221.02 481.481,221.686 479,223.5C 478.333,234.167 478.333,244.833 479,255.5C 483.777,256.248 488.611,256.914 493.5,257.5C 494.713,257.253 495.38,256.586 495.5,255.5C 496.167,255.5 496.833,255.5 497.5,255.5C 498.315,256.429 499.148,257.429 500,258.5C 501.011,257.663 502.178,257.33 503.5,257.5C 503.33,256.178 503.663,255.011 504.5,254C 506.556,253.689 508.556,253.189 510.5,252.5C 511.452,254.045 511.785,255.712 511.5,257.5C 507.683,260.374 503.35,262.208 498.5,263C 489.408,263.776 480.408,263.276 471.5,261.5C 471.829,248.656 471.495,235.989 470.5,223.5C 470.677,213.494 471.01,203.494 471.5,193.5C 473.92,193.292 476.253,193.626 478.5,194.5C 479.233,201.856 479.9,209.19 480.5,216.5 Z"/></g>
<g><path style="opacity:1" fill="#77cae8" d="M 601.5,199.5 C 601.5,203.833 601.5,208.167 601.5,212.5C 600.517,208.702 600.183,204.702 600.5,200.5C 597.167,200.5 593.833,200.5 590.5,200.5C 590.817,204.702 590.483,208.702 589.5,212.5C 589.5,208.167 589.5,203.833 589.5,199.5C 593.5,199.5 597.5,199.5 601.5,199.5 Z"/></g>
<g><path style="opacity:1" fill="#3f5475" d="M 399.5,213.5 C 393.5,213.833 387.5,214.167 381.5,214.5C 387.434,212.505 393.434,212.171 399.5,213.5 Z"/></g>
<g><path style="opacity:1" fill="#c4f3fe" d="M 543.5,212.5 C 537.684,214.644 533.017,218.31 529.5,223.5C 529.081,220.675 530.081,218.509 532.5,217C 535.729,214.384 539.396,212.884 543.5,212.5 Z"/></g>
<g><path style="opacity:1" fill="#12295b" d="M 442.5,199.5 C 443.485,203.634 443.818,207.968 443.5,212.5C 448.167,212.5 452.833,212.5 457.5,212.5C 457.5,215.5 457.5,218.5 457.5,221.5C 453.167,221.5 448.833,221.5 444.5,221.5C 444.333,232.172 444.5,242.839 445,253.5C 445.833,254.333 446.667,255.167 447.5,256C 450.817,256.498 454.15,256.665 457.5,256.5C 457.5,259.5 457.5,262.5 457.5,265.5C 451.824,265.666 446.157,265.499 440.5,265C 437.417,264.214 435.251,262.381 434,259.5C 432.58,246.894 432.08,234.228 432.5,221.5C 429.5,221.5 426.5,221.5 423.5,221.5C 423.5,218.833 423.5,216.167 423.5,213.5C 426.5,213.5 429.5,213.5 432.5,213.5C 433.485,209.366 433.818,205.032 433.5,200.5C 436.713,200.81 439.713,200.477 442.5,199.5 Z"/></g>
<g><path style="opacity:1" fill="#23a5e0" d="M 543.5,212.5 C 548.844,212.334 554.177,212.501 559.5,213C 563.734,214.341 567.401,216.508 570.5,219.5C 566.924,218.187 563.258,217.687 559.5,218C 557.998,218.583 556.665,219.416 555.5,220.5C 557.332,221.057 558.665,222.057 559.5,223.5C 545.262,218.947 538.262,224.114 538.5,239C 538.274,243.416 538.941,247.583 540.5,251.5C 538.754,250.751 537.754,249.417 537.5,247.5C 536.946,241.448 536.112,235.448 535,229.5C 532.973,228.788 531.973,227.788 532,226.5C 530.493,227.555 528.993,228.555 527.5,229.5C 528.167,227.5 528.833,225.5 529.5,223.5C 533.017,218.31 537.684,214.644 543.5,212.5 Z"/></g>
<g><path style="opacity:1" fill="#d9f1f5" d="M 601.5,199.5 C 597.5,199.5 593.5,199.5 589.5,199.5C 589.5,203.833 589.5,208.167 589.5,212.5C 589.167,212.5 588.833,212.5 588.5,212.5C 586.167,212.5 583.833,212.5 581.5,212.5C 581.5,215.5 581.5,218.5 581.5,221.5C 584.167,221.5 586.833,221.5 589.5,221.5C 589.333,232.838 589.5,244.172 590,255.5C 590.278,256.416 590.778,257.082 591.5,257.5C 591.615,259.947 592.615,261.947 594.5,263.5C 592.284,262.797 590.451,261.464 589,259.5C 588.5,247.171 588.333,234.838 588.5,222.5C 584.785,222.577 581.119,222.244 577.5,221.5C 578.09,230.667 578.756,239.834 579.5,249C 579.435,253.187 578.269,257.02 576,260.5C 575.751,259.376 575.251,258.376 574.5,257.5C 572.408,259.605 570.075,261.272 567.5,262.5C 572.003,258.494 574.67,253.494 575.5,247.5C 576.833,241.5 576.833,235.5 575.5,229.5C 575.341,225.326 573.675,221.992 570.5,219.5C 567.401,216.508 563.734,214.341 559.5,213C 554.177,212.501 548.844,212.334 543.5,212.5C 550.981,212.07 558.481,211.07 566,209.5C 567.86,211.201 570.027,212.201 572.5,212.5C 572.5,211.5 572.5,210.5 572.5,209.5C 573.5,209.5 574.5,209.5 575.5,209.5C 575.207,211.689 574.707,213.689 574,215.5C 575.626,215.854 577.459,215.854 579.5,215.5C 579.286,213.856 579.62,212.356 580.5,211C 583.119,211.083 585.786,211.25 588.5,211.5C 588.334,207.154 588.501,202.821 589,198.5C 589.308,197.692 589.808,197.025 590.5,196.5C 593.777,197.254 597.11,197.754 600.5,198C 601.056,198.383 601.389,198.883 601.5,199.5 Z"/></g>
<g><path style="opacity:1" fill="#6e7994" d="M 376.5,215.5 C 375.964,218.698 376.631,221.365 378.5,223.5C 377.791,224.404 376.791,224.737 375.5,224.5C 375.19,221.287 375.523,218.287 376.5,215.5 Z"/></g>
<g><path style="opacity:1" fill="#13a7e7" d="M 601.5,212.5 C 605.5,212.5 609.5,212.5 613.5,212.5C 613.5,215.5 613.5,218.5 613.5,221.5C 609.5,221.5 605.5,221.5 601.5,221.5C 601.334,231.839 601.5,242.172 602,252.5C 602.652,254.723 604.152,255.89 606.5,256C 609.146,256.497 611.813,256.664 614.5,256.5C 614.5,259.5 614.5,262.5 614.5,265.5C 608.642,265.822 602.975,265.489 597.5,264.5C 602.167,264.5 606.833,264.5 611.5,264.5C 611.5,262.833 611.5,261.167 611.5,259.5C 609.473,259.338 607.473,259.505 605.5,260C 604.845,261.487 603.845,262.653 602.5,263.5C 601.28,263.113 600.613,262.28 600.5,261C 601.167,259.667 601.833,258.333 602.5,257C 601.419,255.629 600.585,254.129 600,252.5C 597.766,252.626 595.432,252.293 593,251.5C 593.278,248.85 594.778,246.85 597.5,245.5C 598.281,246.729 598.781,248.062 599,249.5C 598.913,240.849 598.58,232.182 598,223.5C 596.717,228.657 596.05,233.99 596,239.5C 595.208,241.644 593.708,242.977 591.5,243.5C 591.666,235.493 591.5,227.493 591,219.5C 588.379,219.704 585.545,219.704 582.5,219.5C 582.5,217.833 582.5,216.167 582.5,214.5C 585.082,214.975 587.082,214.308 588.5,212.5C 588.833,212.5 589.167,212.5 589.5,212.5C 590.483,208.702 590.817,204.702 590.5,200.5C 593.833,200.5 597.167,200.5 600.5,200.5C 600.183,204.702 600.517,208.702 601.5,212.5 Z"/></g>
<g><path style="opacity:1" fill="#022160" d="M 436.5,201.5 C 438.167,201.5 439.833,201.5 441.5,201.5C 440.908,205.761 440.908,210.094 441.5,214.5C 444.167,214.5 446.833,214.5 449.5,214.5C 449.799,216.604 449.466,218.604 448.5,220.5C 445.477,218.839 443.143,219.505 441.5,222.5C 443.446,233.313 444.113,244.313 443.5,255.5C 441.5,255.5 439.5,255.5 437.5,255.5C 436.382,252.156 436.382,248.822 437.5,245.5C 437.423,243.701 436.923,242.034 436,240.5C 435.667,240.833 435.333,241.167 435,241.5C 434.833,238.5 434.667,235.5 434.5,232.5C 434.554,229.061 435.22,225.894 436.5,223C 434.402,220.174 434.235,217.341 436,214.5C 436.499,210.179 436.666,205.846 436.5,201.5 Z"/></g>
<g><path style="opacity:1" fill="#4878a8" d="M 71.5,175.5 C 70.449,184.503 68.949,193.503 67,202.5C 66.501,206.821 66.3343,211.154 66.5,215.5C 66.5,225.167 66.5,234.833 66.5,244.5C 65.3389,229.672 65.1723,214.672 66,199.5C 67.3122,191.245 69.1455,183.245 71.5,175.5 Z"/></g>
<g><path style="opacity:1" fill="#189ddf" d="M 201.5,239.5 C 200.833,239.5 200.167,239.5 199.5,239.5C 201.21,235.331 200.377,231.665 197,228.5C 196.825,231.157 196.992,233.824 197.5,236.5C 196.178,236.67 195.011,236.337 194,235.5C 192.495,231.513 192.328,227.513 193.5,223.5C 192.167,223.5 190.833,223.5 189.5,223.5C 189.244,225.792 189.577,227.959 190.5,230C 189.5,230.333 188.5,230.667 187.5,231C 187.833,231.333 188.167,231.667 188.5,232C 186.787,233.925 185.453,236.092 184.5,238.5C 182.929,239.309 181.262,239.643 179.5,239.5C 182.637,234.217 184.971,228.551 186.5,222.5C 185.178,222.33 184.011,222.663 183,223.5C 180.5,227.498 179,231.831 178.5,236.5C 177.178,236.67 176.011,236.337 175,235.5C 174.956,238.475 175.123,241.475 175.5,244.5C 170.065,234.499 172.399,226.666 182.5,221C 196.779,219.542 203.112,225.709 201.5,239.5 Z"/></g>
<g><path style="opacity:1" fill="#e4ecef" d="M 559.5,223.5 C 566.093,231.646 567.26,240.646 563,250.5C 555.844,258.081 548.344,258.414 540.5,251.5C 538.941,247.583 538.274,243.416 538.5,239C 538.262,224.114 545.262,218.947 559.5,223.5 Z"/></g>
<g><path style="opacity:1" fill="#109ee6" d="M 243.5,226.5 C 243.5,226.833 243.5,227.167 243.5,227.5C 245.639,234.863 244.306,241.363 239.5,247C 236.907,247.537 234.407,248.37 232,249.5C 230.029,249.532 228.529,248.698 227.5,247C 225.527,246.505 223.527,246.338 221.5,246.5C 216.438,241.401 215.271,235.401 218,228.5C 219.707,226.963 221.207,225.296 222.5,223.5C 230.267,218.99 237.267,219.99 243.5,226.5 Z"/></g>
<g><path style="opacity:1" fill="#072660" d="M 282.5,255.5 C 289.585,256.993 296.585,256.66 303.5,254.5C 304.484,257.428 304.817,260.428 304.5,263.5C 295.861,265.742 287.194,265.909 278.5,264C 264.939,257.373 259.772,246.54 263,231.5C 264.391,224.955 267.891,219.955 273.5,216.5C 273.917,217.124 274.584,217.457 275.5,217.5C 283.463,214.667 291.463,214.167 299.5,216C 298.672,216.915 297.672,217.581 296.5,218C 298.81,218.497 301.143,218.663 303.5,218.5C 303.5,219.5 303.5,220.5 303.5,221.5C 296.972,221.686 290.472,221.352 284,220.5C 282.033,220.542 280.199,221.042 278.5,222C 278.833,222.333 279.167,222.667 279.5,223C 277.559,223.304 275.893,224.137 274.5,225.5C 269.578,236.296 270.911,246.13 278.5,255C 279.793,255.49 281.127,255.657 282.5,255.5 Z"/></g>
<g><path style="opacity:1" fill="#0da4e8" d="M 501.5,214.5 C 508.459,215.306 513.125,218.973 515.5,225.5C 515.502,230.021 515.836,234.521 516.5,239C 516.323,243.393 515.323,247.559 513.5,251.5C 507.677,248.558 506.01,243.892 508.5,237.5C 507.971,232.983 506.804,228.65 505,224.5C 503.301,223.594 501.467,223.261 499.5,223.5C 499.167,223.5 498.833,223.5 498.5,223.5C 495.818,221.92 492.818,220.754 489.5,220C 490.227,218.601 490.727,217.101 491,215.5C 494.394,214.544 497.894,214.211 501.5,214.5 Z"/></g>
<g><path style="opacity:1" fill="#ddeff5" d="M 469.5,192.5 C 473.683,191.189 478.016,191.189 482.5,192.5C 482.838,196.162 484.005,196.829 486,194.5C 486.172,198.871 486.672,203.204 487.5,207.5C 488.23,208.934 489.23,210.1 490.5,211C 496.114,212.324 501.114,211.157 505.5,207.5C 507.334,208.754 509.334,209.421 511.5,209.5C 511.5,210.5 511.5,211.5 511.5,212.5C 509.801,212.34 508.134,212.506 506.5,213C 509.784,215.848 513.451,218.181 517.5,220C 518.337,221.011 518.67,222.178 518.5,223.5C 519.5,223.5 520.5,223.5 521.5,223.5C 519.99,233.57 520.323,243.57 522.5,253.5C 523.086,253.291 523.586,252.957 524,252.5C 524.049,242.727 524.882,233.061 526.5,223.5C 527.5,223.5 528.5,223.5 529.5,223.5C 528.833,225.5 528.167,227.5 527.5,229.5C 523.791,242.31 526.791,253.144 536.5,262C 538.078,263.094 539.745,263.928 541.5,264.5C 549.929,266.233 558.262,265.567 566.5,262.5C 566.063,264.074 565.063,265.241 563.5,266C 555.5,268 547.5,268 539.5,266C 536.94,264.227 534.607,262.227 532.5,260C 531.552,259.517 530.552,259.351 529.5,259.5C 529.313,257.436 528.813,255.436 528,253.5C 524.506,255.377 520.673,256.044 516.5,255.5C 516.753,257.827 516.086,259.827 514.5,261.5C 513.386,262.776 512.386,262.776 511.5,261.5C 511.5,260.833 511.5,260.167 511.5,259.5C 519.054,248.78 520.387,237.447 515.5,225.5C 513.125,218.973 508.459,215.306 501.5,214.5C 496.35,213.349 491.016,213.183 485.5,214C 484.016,214.662 482.683,215.496 481.5,216.5C 481.5,208.5 481.5,200.5 481.5,192.5C 477.5,192.5 473.5,192.5 469.5,192.5 Z"/></g>
<g><path style="opacity:1" fill="#022666" d="M 325.5,218.5 C 325.5,219.5 325.5,220.5 325.5,221.5C 328.108,221.394 330.108,220.228 331.5,218C 334.572,218.063 337.572,217.896 340.5,217.5C 341.696,217.846 341.696,218.346 340.5,219C 338.899,219.273 337.399,219.773 336,220.5C 335.667,220.167 335.333,219.833 335,219.5C 333.812,220.563 333.312,221.897 333.5,223.5C 333.167,223.5 332.833,223.5 332.5,223.5C 329.074,223.757 326.574,225.423 325,228.5C 325.388,239.82 325.388,251.153 325,262.5C 322.619,263.435 320.119,263.768 317.5,263.5C 317.333,241.164 317.5,218.831 318,196.5C 319.822,196.032 321.989,195.699 324.5,195.5C 324.175,203.352 324.508,211.018 325.5,218.5 Z"/></g>
<g><path style="opacity:1" fill="#05235e" d="M 399.5,213.5 C 407.837,213.653 413.17,217.653 415.5,225.5C 415.5,235.5 415.5,245.5 415.5,255.5C 413.903,254.263 412.737,252.596 412,250.5C 411.233,246.442 411.4,242.442 412.5,238.5C 410.995,235.869 410.329,236.203 410.5,239.5C 408.833,239.5 407.167,239.5 405.5,239.5C 405.5,238.5 405.5,237.5 405.5,236.5C 404.5,236.5 403.5,236.5 402.5,236.5C 403.209,235.596 404.209,235.263 405.5,235.5C 405.802,232.941 405.468,230.607 404.5,228.5C 403.233,224.743 400.566,222.576 396.5,222C 390.455,221.774 384.455,222.274 378.5,223.5C 376.631,221.365 375.964,218.698 376.5,215.5C 378.216,215.371 379.883,215.038 381.5,214.5C 387.5,214.167 393.5,213.833 399.5,213.5 Z"/></g>
<g><path style="opacity:1" fill="#142854" d="M 282.5,255.5 C 281.127,255.657 279.793,255.49 278.5,255C 270.911,246.13 269.578,236.296 274.5,225.5C 275.893,224.137 277.559,223.304 279.5,223C 279.167,222.667 278.833,222.333 278.5,222C 280.199,221.042 282.033,220.542 284,220.5C 290.472,221.352 296.972,221.686 303.5,221.5C 303.5,220.5 303.5,219.5 303.5,218.5C 301.143,218.663 298.81,218.497 296.5,218C 297.672,217.581 298.672,216.915 299.5,216C 291.463,214.167 283.463,214.667 275.5,217.5C 274.584,217.457 273.917,217.124 273.5,216.5C 275.637,215.213 277.97,214.379 280.5,214C 288.523,213.343 296.523,213.51 304.5,214.5C 304.5,217.5 304.5,220.5 304.5,223.5C 297.189,222.531 289.856,222.364 282.5,223C 274.443,227.47 271.61,234.303 274,243.5C 275.117,248.773 277.95,252.773 282.5,255.5 Z"/></g>
<g><path style="opacity:1" fill="#0ea5e9" d="M 570.5,219.5 C 573.675,221.992 575.341,225.326 575.5,229.5C 575.666,234.511 575.499,239.511 575,244.5C 573.731,243.095 573.231,241.429 573.5,239.5C 572.167,239.5 570.833,239.5 569.5,239.5C 568.475,233.753 566.475,228.42 563.5,223.5C 562.167,223.5 560.833,223.5 559.5,223.5C 558.665,222.057 557.332,221.057 555.5,220.5C 556.665,219.416 557.998,218.583 559.5,218C 563.258,217.687 566.924,218.187 570.5,219.5 Z"/></g>
<g><path style="opacity:1" fill="#14479e" d="M 137.5,278.5 C 137.833,278.5 138.167,278.5 138.5,278.5C 140.116,283.357 141.116,288.357 141.5,293.5C 141.742,305.533 141.242,317.533 140,329.5C 139.885,333.614 138.718,337.281 136.5,340.5C 136.611,338.352 135.944,338.019 134.5,339.5C 133.526,341.743 133.192,344.076 133.5,346.5C 131.738,346.357 130.071,346.691 128.5,347.5C 127.502,338.19 127.168,328.857 127.5,319.5C 120.543,320.132 113.877,319.132 107.5,316.5C 108.833,315.833 110.167,315.167 111.5,314.5C 109.994,313.253 108.494,313.253 107,314.5C 105.795,313.929 104.628,313.262 103.5,312.5C 104.025,311.808 104.692,311.308 105.5,311C 104.978,310.439 104.645,309.772 104.5,309C 105.504,307.202 106.004,305.368 106,303.5C 104.383,302.149 103.216,300.482 102.5,298.5C 99.005,300.865 98.6717,300.198 101.5,296.5C 100.271,295.719 98.938,295.219 97.5,295C 94.0357,292.104 91.369,288.604 89.5,284.5C 87.5756,284.433 85.5756,284.1 83.5,283.5C 84.5,282.167 85.5,280.833 86.5,279.5C 85.1845,275.521 83.8512,275.521 82.5,279.5C 81.548,278.467 81.548,277.3 82.5,276C 80.2817,273.269 78.9484,270.102 78.5,266.5C 77.2949,270.063 76.6282,273.73 76.5,277.5C 77.797,282.031 78.797,286.698 79.5,291.5C 74.829,280.82 71.1623,269.82 68.5,258.5C 68.5,257.5 68.5,256.5 68.5,255.5C 69.829,244.86 71.1623,234.194 72.5,223.5C 74.0011,226.453 74.6678,229.619 74.5,233C 74.4704,235.424 74.1371,237.757 73.5,240C 74.0712,241.205 74.7379,242.372 75.5,243.5C 76.086,243.291 76.586,242.957 77,242.5C 77.3333,234.5 77.6667,226.5 78,218.5C 78.9295,216.455 80.4295,215.621 82.5,216C 80.0471,217.848 79.0471,220.348 79.5,223.5C 80.675,223.719 81.675,223.386 82.5,222.5C 84.1377,217.414 85.1377,217.747 85.5,223.5C 86.8333,223.5 88.1667,223.5 89.5,223.5C 89.3243,228.88 89.6576,234.213 90.5,239.5C 93.2469,239.187 95.9135,239.52 98.5,240.5C 97.7366,241.719 96.7366,242.719 95.5,243.5C 98.7625,244.054 99.7625,245.72 98.5,248.5C 100.045,249.452 101.712,249.785 103.5,249.5C 104.164,251.867 105.497,253.867 107.5,255.5C 108.408,250.989 110.408,250.822 113.5,255C 112.316,256.18 111.649,257.68 111.5,259.5C 113.591,263.511 115.591,267.511 117.5,271.5C 113.818,271.335 110.152,271.501 106.5,272C 108.473,274.489 110.306,274.656 112,272.5C 117,277.167 122,281.833 127,286.5C 127.826,283.207 128.326,279.874 128.5,276.5C 129.5,276.5 130.5,276.5 131.5,276.5C 131.5,278.833 131.5,281.167 131.5,283.5C 130.5,283.5 129.5,283.5 128.5,283.5C 131.941,293.304 131.941,302.637 128.5,311.5C 128.776,313.33 129.443,314.997 130.5,316.5C 133.326,306.62 133.992,296.62 132.5,286.5C 134.387,283.794 136.054,281.127 137.5,278.5 Z"/></g>
<g><path style="opacity:1" fill="#1c3060" d="M 404.5,228.5 C 405.468,230.607 405.802,232.941 405.5,235.5C 404.209,235.263 403.209,235.596 402.5,236.5C 395.468,235.05 388.468,235.216 381.5,237C 380.692,237.308 380.025,237.808 379.5,238.5C 380.123,240.711 381.123,242.711 382.5,244.5C 383.386,243.675 383.719,242.675 383.5,241.5C 387.094,240.543 390.76,239.876 394.5,239.5C 399.194,240.039 403.861,240.706 408.5,241.5C 408.421,243.666 407.754,245.666 406.5,247.5C 408.499,251.841 407.166,254.174 402.5,254.5C 404.343,250.813 405.01,246.813 404.5,242.5C 398.824,242.334 393.157,242.501 387.5,243C 382.857,245.072 381.357,248.572 383,253.5C 383.5,254.667 384.333,255.5 385.5,256C 390.983,256.85 396.317,256.35 401.5,254.5C 400.345,256.825 398.345,257.992 395.5,258C 391.247,258.2 387.08,258.7 383,259.5C 381.989,258.663 380.822,258.33 379.5,258.5C 380.213,254.142 380.547,249.808 380.5,245.5C 380.154,244.304 379.654,244.304 379,245.5C 378.505,243.527 378.338,241.527 378.5,239.5C 377.5,239.5 376.5,239.5 375.5,239.5C 378.04,236.393 381.373,234.56 385.5,234C 391.856,233.406 398.189,233.573 404.5,234.5C 404.5,232.5 404.5,230.5 404.5,228.5 Z"/></g>
<g><path style="opacity:1" fill="#1fa3da" d="M 501.5,214.5 C 497.894,214.211 494.394,214.544 491,215.5C 490.727,217.101 490.227,218.601 489.5,220C 492.818,220.754 495.818,221.92 498.5,223.5C 497.833,223.5 497.167,223.5 496.5,223.5C 491.368,221.962 486.368,222.629 481.5,225.5C 480.502,234.81 480.168,244.143 480.5,253.5C 485.346,255.039 490.346,255.706 495.5,255.5C 495.38,256.586 494.713,257.253 493.5,257.5C 488.611,256.914 483.777,256.248 479,255.5C 478.333,244.833 478.333,234.167 479,223.5C 481.481,221.686 484.315,221.02 487.5,221.5C 487.5,220.5 487.5,219.5 487.5,218.5C 484.297,220.19 481.964,219.523 480.5,216.5C 480.833,216.5 481.167,216.5 481.5,216.5C 482.683,215.496 484.016,214.662 485.5,214C 491.016,213.183 496.35,213.349 501.5,214.5 Z"/></g>
<g><path style="opacity:1" fill="#46a6cf" d="M 588.5,212.5 C 587.082,214.308 585.082,214.975 582.5,214.5C 582.5,216.167 582.5,217.833 582.5,219.5C 585.545,219.704 588.379,219.704 591,219.5C 591.5,227.493 591.666,235.493 591.5,243.5C 591.5,248.167 591.5,252.833 591.5,257.5C 590.778,257.082 590.278,256.416 590,255.5C 589.5,244.172 589.333,232.838 589.5,221.5C 586.833,221.5 584.167,221.5 581.5,221.5C 581.5,218.5 581.5,215.5 581.5,212.5C 583.833,212.5 586.167,212.5 588.5,212.5 Z"/></g>
<g><path style="opacity:1" fill="#049deb" d="M 199.5,239.5 C 198.836,240.648 198.669,241.981 199,243.5C 196.334,244.893 193.834,246.559 191.5,248.5C 188.554,249.655 185.554,249.821 182.5,249C 180.609,247.558 178.609,246.391 176.5,245.5C 175.833,245.5 175.5,245.167 175.5,244.5C 175.123,241.475 174.956,238.475 175,235.5C 176.011,236.337 177.178,236.67 178.5,236.5C 179,231.831 180.5,227.498 183,223.5C 184.011,222.663 185.178,222.33 186.5,222.5C 184.971,228.551 182.637,234.217 179.5,239.5C 181.262,239.643 182.929,239.309 184.5,238.5C 185.453,236.092 186.787,233.925 188.5,232C 188.167,231.667 187.833,231.333 187.5,231C 188.5,230.667 189.5,230.333 190.5,230C 189.577,227.959 189.244,225.792 189.5,223.5C 190.833,223.5 192.167,223.5 193.5,223.5C 192.328,227.513 192.495,231.513 194,235.5C 195.011,236.337 196.178,236.67 197.5,236.5C 196.992,233.824 196.825,231.157 197,228.5C 200.377,231.665 201.21,235.331 199.5,239.5 Z"/></g>
<g><path style="opacity:1" fill="#1ca8e6" d="M 559.5,223.5 C 560.833,223.5 562.167,223.5 563.5,223.5C 566.475,228.42 568.475,233.753 569.5,239.5C 570.833,239.5 572.167,239.5 573.5,239.5C 573.231,241.429 573.731,243.095 575,244.5C 575.499,239.511 575.666,234.511 575.5,229.5C 576.833,235.5 576.833,241.5 575.5,247.5C 573.076,251.977 570.076,256.31 566.5,260.5C 558.572,264.033 550.238,265.367 541.5,264.5C 539.745,263.928 538.078,263.094 536.5,262C 526.791,253.144 523.791,242.31 527.5,229.5C 528.993,228.555 530.493,227.555 532,226.5C 531.973,227.788 532.973,228.788 535,229.5C 536.112,235.448 536.946,241.448 537.5,247.5C 537.754,249.417 538.754,250.751 540.5,251.5C 548.344,258.414 555.844,258.081 563,250.5C 567.26,240.646 566.093,231.646 559.5,223.5 Z"/></g>
<g><path style="opacity:1" fill="#08a7f1" d="M 597.5,264.5 C 596.391,264.443 595.391,264.11 594.5,263.5C 592.615,261.947 591.615,259.947 591.5,257.5C 591.5,252.833 591.5,248.167 591.5,243.5C 593.708,242.977 595.208,241.644 596,239.5C 596.05,233.99 596.717,228.657 598,223.5C 598.58,232.182 598.913,240.849 599,249.5C 598.781,248.062 598.281,246.729 597.5,245.5C 594.778,246.85 593.278,248.85 593,251.5C 595.432,252.293 597.766,252.626 600,252.5C 600.585,254.129 601.419,255.629 602.5,257C 601.833,258.333 601.167,259.667 600.5,261C 600.613,262.28 601.28,263.113 602.5,263.5C 603.845,262.653 604.845,261.487 605.5,260C 607.473,259.505 609.473,259.338 611.5,259.5C 611.5,261.167 611.5,262.833 611.5,264.5C 606.833,264.5 602.167,264.5 597.5,264.5 Z"/></g>
<g><path style="opacity:1" fill="#022466" d="M 402.5,236.5 C 403.5,236.5 404.5,236.5 405.5,236.5C 405.5,237.5 405.5,238.5 405.5,239.5C 407.167,239.5 408.833,239.5 410.5,239.5C 410.329,236.203 410.995,235.869 412.5,238.5C 411.4,242.442 411.233,246.442 412,250.5C 412.737,252.596 413.903,254.263 415.5,255.5C 411.114,256.8 406.78,258.633 402.5,261C 398.781,261.388 395.114,262.055 391.5,263C 383.918,264.926 378.251,262.593 374.5,256C 375.26,254.559 375.926,253.059 376.5,251.5C 374.197,247.722 373.863,243.722 375.5,239.5C 376.5,239.5 377.5,239.5 378.5,239.5C 378.338,241.527 378.505,243.527 379,245.5C 379.654,244.304 380.154,244.304 380.5,245.5C 380.547,249.808 380.213,254.142 379.5,258.5C 380.822,258.33 381.989,258.663 383,259.5C 387.08,258.7 391.247,258.2 395.5,258C 398.345,257.992 400.345,256.825 401.5,254.5C 401.833,254.5 402.167,254.5 402.5,254.5C 407.166,254.174 408.499,251.841 406.5,247.5C 407.754,245.666 408.421,243.666 408.5,241.5C 403.861,240.706 399.194,240.039 394.5,239.5C 390.76,239.876 387.094,240.543 383.5,241.5C 383.719,242.675 383.386,243.675 382.5,244.5C 381.123,242.711 380.123,240.711 379.5,238.5C 380.025,237.808 380.692,237.308 381.5,237C 388.468,235.216 395.468,235.05 402.5,236.5 Z"/></g>
<g><path style="opacity:1" fill="#beedf8" d="M 496.5,223.5 C 492.698,222.88 489.365,223.714 486.5,226C 485.207,226.49 483.873,226.657 482.5,226.5C 482.5,235.167 482.5,243.833 482.5,252.5C 485.508,252.701 488.508,253.034 491.5,253.5C 495.256,252.786 498.923,251.786 502.5,250.5C 502.181,248.25 502.681,246.25 504,244.5C 504.667,239.833 504.667,235.167 504,230.5C 502.148,228.043 500.314,225.709 498.5,223.5C 498.833,223.5 499.167,223.5 499.5,223.5C 504.857,226.529 507.19,231.196 506.5,237.5C 507.148,245.538 504.148,251.538 497.5,255.5C 496.833,255.5 496.167,255.5 495.5,255.5C 490.346,255.706 485.346,255.039 480.5,253.5C 480.168,244.143 480.502,234.81 481.5,225.5C 486.368,222.629 491.368,221.962 496.5,223.5 Z"/></g>
<g><path style="opacity:1" fill="#399cca" d="M 199.5,239.5 C 200.167,239.5 200.833,239.5 201.5,239.5C 198.975,248.604 192.975,252.437 183.5,251C 180.734,249.629 178.401,247.796 176.5,245.5C 178.609,246.391 180.609,247.558 182.5,249C 185.554,249.821 188.554,249.655 191.5,248.5C 193.834,246.559 196.334,244.893 199,243.5C 198.669,241.981 198.836,240.648 199.5,239.5 Z"/></g>
<g><path style="opacity:1" fill="#d6f1f6" d="M 222.5,223.5 C 221.207,225.296 219.707,226.963 218,228.5C 215.271,235.401 216.438,241.401 221.5,246.5C 224.007,249.565 227.34,250.898 231.5,250.5C 243.382,249.098 248.216,242.432 246,230.5C 245.623,229.058 244.79,228.058 243.5,227.5C 243.5,227.167 243.5,226.833 243.5,226.5C 244.822,226.33 245.989,226.663 247,227.5C 250.212,238.07 247.045,246.07 237.5,251.5C 232.448,252.331 227.448,252.664 222.5,252.5C 220.742,251.872 219.242,250.872 218,249.5C 216.985,245.106 215.818,240.772 214.5,236.5C 215.027,233.419 215.86,230.419 217,227.5C 218.257,225.254 220.09,223.921 222.5,223.5 Z"/></g>
<g><path style="opacity:1" fill="#2d99cc" d="M 243.5,227.5 C 244.79,228.058 245.623,229.058 246,230.5C 248.216,242.432 243.382,249.098 231.5,250.5C 227.34,250.898 224.007,249.565 221.5,246.5C 223.527,246.338 225.527,246.505 227.5,247C 228.529,248.698 230.029,249.532 232,249.5C 234.407,248.37 236.907,247.537 239.5,247C 244.306,241.363 245.639,234.863 243.5,227.5 Z"/></g>
<g><path style="opacity:1" fill="#d5f0f7" d="M 601.5,199.5 C 602.323,202.977 602.823,206.644 603,210.5C 607.08,211.3 611.247,211.8 615.5,212C 616.27,214.607 616.937,217.273 617.5,220C 616.907,221.882 615.573,222.882 613.5,223C 610.183,223.498 606.85,223.665 603.5,223.5C 603.168,233.19 603.502,242.856 604.5,252.5C 605.167,251.833 605.833,251.167 606.5,250.5C 609.399,251.642 612.399,252.308 615.5,252.5C 615.262,248.901 616.262,248.567 618.5,251.5C 617.975,252.192 617.308,252.692 616.5,253C 619.167,257.333 619.167,261.667 616.5,266C 610.235,267.484 603.902,267.818 597.5,267C 595.574,266.578 594.574,265.411 594.5,263.5C 595.391,264.11 596.391,264.443 597.5,264.5C 602.975,265.489 608.642,265.822 614.5,265.5C 614.5,262.5 614.5,259.5 614.5,256.5C 611.813,256.664 609.146,256.497 606.5,256C 604.152,255.89 602.652,254.723 602,252.5C 601.5,242.172 601.334,231.839 601.5,221.5C 605.5,221.5 609.5,221.5 613.5,221.5C 613.5,218.5 613.5,215.5 613.5,212.5C 609.5,212.5 605.5,212.5 601.5,212.5C 601.5,208.167 601.5,203.833 601.5,199.5 Z"/></g>
<g><path style="opacity:1" fill="#152a59" d="M 358.5,221.5 C 359.222,221.918 359.722,222.584 360,223.5C 360.5,237.496 360.667,251.496 360.5,265.5C 356.833,265.5 353.167,265.5 349.5,265.5C 349.667,252.496 349.5,239.496 349,226.5C 348.167,225 347,223.833 345.5,223C 341.446,222.306 337.446,222.473 333.5,223.5C 333.312,221.897 333.812,220.563 335,219.5C 335.333,219.833 335.667,220.167 336,220.5C 337.399,219.773 338.899,219.273 340.5,219C 341.696,218.346 341.696,217.846 340.5,217.5C 337.572,217.896 334.572,218.063 331.5,218C 330.108,220.228 328.108,221.394 325.5,221.5C 325.5,220.5 325.5,219.5 325.5,218.5C 325.833,218.5 326.167,218.5 326.5,218.5C 334.797,212.203 343.797,211.036 353.5,215C 355.79,216.777 357.457,218.944 358.5,221.5 Z"/></g>
<g><path style="opacity:1" fill="#022563" d="M 358.5,221.5 C 359.242,235.821 359.575,250.154 359.5,264.5C 356.833,264.5 354.167,264.5 351.5,264.5C 351.563,261.343 352.563,258.509 354.5,256C 353.552,255.517 352.552,255.351 351.5,255.5C 351.773,245.304 351.439,235.138 350.5,225C 350.215,223.11 349.215,221.777 347.5,221C 345.616,220.784 343.949,220.117 342.5,219C 345.943,219.357 349.276,218.524 352.5,216.5C 354.153,218.649 356.153,220.316 358.5,221.5 Z"/></g>
<g><path style="opacity:1" fill="#ccf4fe" d="M 469.5,192.5 C 469.169,216.006 469.502,239.339 470.5,262.5C 470.611,263.117 470.944,263.617 471.5,264C 482.175,265.927 492.841,265.927 503.5,264C 506.312,262.672 508.978,261.172 511.5,259.5C 511.5,260.167 511.5,260.833 511.5,261.5C 508.522,262.989 505.522,264.489 502.5,266C 492.167,266.667 481.833,266.667 471.5,266C 470.667,265.167 469.833,264.333 469,263.5C 468.17,239.663 468.337,215.996 469.5,192.5 Z"/></g>
<g><path style="opacity:1" fill="#355a96" d="M 128.5,223.5 C 128.833,223.5 129.167,223.5 129.5,223.5C 129.042,234.938 129.708,246.272 131.5,257.5C 129.529,253.52 128.362,249.187 128,244.5C 127.179,237.321 127.345,230.321 128.5,223.5 Z"/></g>
<g><path style="opacity:1" fill="#1e2e5e" d="M 415.5,225.5 C 416.496,238.656 416.829,251.99 416.5,265.5C 411.561,266.648 408.061,264.981 406,260.5C 396.886,265.996 387.386,266.829 377.5,263C 371.739,257.763 369.905,251.263 372,243.5C 372.949,241.907 374.115,240.574 375.5,239.5C 373.863,243.722 374.197,247.722 376.5,251.5C 375.926,253.059 375.26,254.559 374.5,256C 378.251,262.593 383.918,264.926 391.5,263C 395.114,262.055 398.781,261.388 402.5,261C 406.78,258.633 411.114,256.8 415.5,255.5C 415.5,245.5 415.5,235.5 415.5,225.5 Z"/></g>
<g><path style="opacity:1" fill="#e3e9ee" d="M 402.5,254.5 C 402.167,254.5 401.833,254.5 401.5,254.5C 396.317,256.35 390.983,256.85 385.5,256C 384.333,255.5 383.5,254.667 383,253.5C 381.357,248.572 382.857,245.072 387.5,243C 393.157,242.501 398.824,242.334 404.5,242.5C 405.01,246.813 404.343,250.813 402.5,254.5 Z"/></g>
<g><path style="opacity:1" fill="#406099" d="M 131.5,258.5 C 134.204,264.941 136.537,271.608 138.5,278.5C 138.167,278.5 137.833,278.5 137.5,278.5C 134.911,272.061 132.911,265.395 131.5,258.5 Z"/></g>
<g><path style="opacity:1" fill="#37a6cc" d="M 575.5,247.5 C 574.67,253.494 572.003,258.494 567.5,262.5C 567.167,262.5 566.833,262.5 566.5,262.5C 558.262,265.567 549.929,266.233 541.5,264.5C 550.238,265.367 558.572,264.033 566.5,260.5C 570.076,256.31 573.076,251.977 575.5,247.5 Z"/></g>
<g><path style="opacity:1" fill="#2fa3d4" d="M 470.5,223.5 C 471.495,235.989 471.829,248.656 471.5,261.5C 480.408,263.276 489.408,263.776 498.5,263C 503.35,262.208 507.683,260.374 511.5,257.5C 511.785,255.712 511.452,254.045 510.5,252.5C 508.556,253.189 506.556,253.689 504.5,254C 503.663,255.011 503.33,256.178 503.5,257.5C 502.178,257.33 501.011,257.663 500,258.5C 499.148,257.429 498.315,256.429 497.5,255.5C 504.148,251.538 507.148,245.538 506.5,237.5C 507.19,231.196 504.857,226.529 499.5,223.5C 501.467,223.261 503.301,223.594 505,224.5C 506.804,228.65 507.971,232.983 508.5,237.5C 506.01,243.892 507.677,248.558 513.5,251.5C 515.323,247.559 516.323,243.393 516.5,239C 515.836,234.521 515.502,230.021 515.5,225.5C 520.387,237.447 519.054,248.78 511.5,259.5C 508.978,261.172 506.312,262.672 503.5,264C 492.841,265.927 482.175,265.927 471.5,264C 470.944,263.617 470.611,263.117 470.5,262.5C 470.5,249.5 470.5,236.5 470.5,223.5 Z"/></g>
<g><path style="opacity:1" fill="#e9eaed" d="M 496.5,223.5 C 497.167,223.5 497.833,223.5 498.5,223.5C 500.314,225.709 502.148,228.043 504,230.5C 504.667,235.167 504.667,239.833 504,244.5C 502.681,246.25 502.181,248.25 502.5,250.5C 498.923,251.786 495.256,252.786 491.5,253.5C 488.508,253.034 485.508,252.701 482.5,252.5C 482.5,243.833 482.5,235.167 482.5,226.5C 483.873,226.657 485.207,226.49 486.5,226C 489.365,223.714 492.698,222.88 496.5,223.5 Z"/></g>
<g><path style="opacity:1" fill="#d5e2f4" d="M 68.5,258.5 C 71.1623,269.82 74.829,280.82 79.5,291.5C 81.7594,297.735 84.4261,303.735 87.5,309.5C 86.4168,309.461 85.4168,309.127 84.5,308.5C 83.4914,305.222 81.9914,302.222 80,299.5C 79.5065,297.866 79.3398,296.199 79.5,294.5C 78.1779,294.67 77.0113,294.337 76,293.5C 75.5274,287.668 73.8607,282.335 71,277.5C 70.4198,272.178 69.2532,267.011 67.5,262C 67.9891,260.862 68.3225,259.695 68.5,258.5 Z"/></g>
<g><path style="opacity:1" fill="#5574a8" d="M 138.5,278.5 C 140.163,280.493 141.33,282.826 142,285.5C 142.977,290.793 143.477,296.126 143.5,301.5C 142.833,298.833 142.167,296.167 141.5,293.5C 141.116,288.357 140.116,283.357 138.5,278.5 Z"/></g>
<g><path style="opacity:1" fill="#22dcf9" d="M 367.5,299.5 C 375.2,298.124 382.533,299.624 389.5,304C 392.432,306.423 394.765,309.257 396.5,312.5C 395.409,315.022 394.075,317.355 392.5,319.5C 390.876,319.36 389.71,320.027 389,321.5C 387.984,320.366 387.317,320.699 387,322.5C 385.68,322.201 384.18,322.034 382.5,322C 381.953,321.075 381.287,320.242 380.5,319.5C 379.335,320.491 378.168,321.491 377,322.5C 375.72,322.387 374.887,321.72 374.5,320.5C 375.833,319.833 377.167,319.167 378.5,318.5C 377.349,317.269 376.183,317.269 375,318.5C 373.307,316.396 371.14,314.896 368.5,314C 366.955,311.915 366.622,309.748 367.5,307.5C 363.58,307.151 362.914,305.818 365.5,303.5C 367.535,302.959 369.535,302.292 371.5,301.5C 371.043,300.702 370.376,300.369 369.5,300.5C 369.158,299.662 368.492,299.328 367.5,299.5 Z"/></g>
<g><path style="opacity:1" fill="#1667a7" d="M 367.5,299.5 C 368.492,299.328 369.158,299.662 369.5,300.5C 358.31,303.605 349.31,309.939 342.5,319.5C 342.639,316.412 343.639,313.745 345.5,311.5C 346.911,309.461 348.911,308.461 351.5,308.5C 351.5,306.833 351.5,305.167 351.5,303.5C 350.5,303.5 349.5,303.5 348.5,303.5C 354.452,300.908 360.786,299.575 367.5,299.5 Z"/></g>
<g><path style="opacity:1" fill="#214385" d="M 141.5,293.5 C 142.167,296.167 142.833,298.833 143.5,301.5C 143.543,313.614 142.376,325.614 140,337.5C 138.159,343.548 135.659,349.214 132.5,354.5C 131.876,350.995 132.876,348.162 135.5,346C 136.233,344.234 136.567,342.401 136.5,340.5C 138.718,337.281 139.885,333.614 140,329.5C 141.242,317.533 141.742,305.533 141.5,293.5 Z"/></g>
<g><path style="opacity:1" fill="#1acbf7" d="M 375.5,342.5 C 370.871,348.797 365.538,354.463 359.5,359.5C 359.626,357.8 360.293,356.3 361.5,355C 360.475,352.172 361.141,349.672 363.5,347.5C 361.714,345.078 360.048,345.078 358.5,347.5C 354.639,346.501 354.639,345.335 358.5,344C 356.22,343.767 354.22,342.934 352.5,341.5C 351.766,339.185 350.432,337.352 348.5,336C 349.517,334.951 349.684,333.784 349,332.5C 348.333,331.167 347.667,331.167 347,332.5C 346.059,330.939 344.892,329.605 343.5,328.5C 342.583,329.127 341.583,329.461 340.5,329.5C 341.887,326.96 344.054,325.293 347,324.5C 347.743,322.559 347.576,320.726 346.5,319C 348.888,317.139 351.554,315.806 354.5,315C 355.82,311.794 358.153,310.794 361.5,312C 360.063,314.217 358.397,316.217 356.5,318C 356.833,318.5 357.167,319 357.5,319.5C 358.328,318.585 359.328,317.919 360.5,317.5C 362.577,318.937 364.91,319.604 367.5,319.5C 367.187,322.247 367.52,324.914 368.5,327.5C 369.287,326.758 369.953,325.925 370.5,325C 369.594,323.301 369.261,321.467 369.5,319.5C 370.5,319.5 371.5,319.5 372.5,319.5C 372.03,322.346 372.863,324.679 375,326.5C 376.337,325.235 377.837,324.735 379.5,325C 376.141,328.901 376.807,331.568 381.5,333C 378.854,335.802 376.854,338.968 375.5,342.5 Z"/></g>
<g><path style="opacity:1" fill="#2368af" d="M 332.5,310.5 C 330.529,312.44 328.196,314.107 325.5,315.5C 325.167,316.167 324.833,316.833 324.5,317.5C 326.04,318.532 326.54,319.865 326,321.5C 324.257,319.372 322.091,318.539 319.5,319C 313.758,323.75 307.758,328.083 301.5,332C 299.564,332.813 297.564,333.313 295.5,333.5C 307.053,324.622 319.386,316.955 332.5,310.5 Z"/></g>
<g><path style="opacity:1" fill="#1bc3f3" d="M 359.5,359.5 C 353.078,365.55 346.078,370.883 338.5,375.5C 338.511,373.983 339.177,372.816 340.5,372C 344.972,370.532 347.638,367.532 348.5,363C 351.059,361.526 353.392,360.526 355.5,360C 354.277,357.943 353.277,355.777 352.5,353.5C 351.572,355.335 350.406,355.668 349,354.5C 348.966,352.82 348.799,351.32 348.5,350C 345.743,349.218 343.243,349.718 341,351.5C 340.333,350.833 339.667,350.167 339,349.5C 338.29,350.973 337.124,351.64 335.5,351.5C 335.82,348.102 335.487,344.768 334.5,341.5C 332.765,344.111 330.765,346.445 328.5,348.5C 330.876,343.419 333.542,338.419 336.5,333.5C 338.808,333.035 340.142,331.701 340.5,329.5C 341.583,329.461 342.583,329.127 343.5,328.5C 344.892,329.605 346.059,330.939 347,332.5C 347.667,331.167 348.333,331.167 349,332.5C 349.684,333.784 349.517,334.951 348.5,336C 350.432,337.352 351.766,339.185 352.5,341.5C 354.22,342.934 356.22,343.767 358.5,344C 354.639,345.335 354.639,346.501 358.5,347.5C 360.048,345.078 361.714,345.078 363.5,347.5C 361.141,349.672 360.475,352.172 361.5,355C 360.293,356.3 359.626,357.8 359.5,359.5 Z"/></g>
<g><path style="opacity:1" fill="#1c4197" d="M 136.5,340.5 C 136.567,342.401 136.233,344.234 135.5,346C 132.876,348.162 131.876,350.995 132.5,354.5C 131.567,357.37 129.9,359.704 127.5,361.5C 126.25,361.577 125.417,362.244 125,363.5C 124.764,365.764 124.264,367.931 123.5,370C 124.579,370.956 125.745,371.789 127,372.5C 132.583,371.213 138.083,369.547 143.5,367.5C 146.067,367.145 148.567,366.479 151,365.5C 152.059,365.63 152.892,366.13 153.5,367C 152.167,367.333 150.833,367.667 149.5,368C 150.427,370.97 152.427,372.803 155.5,373.5C 154.636,375.197 153.303,376.363 151.5,377C 154.167,377.667 154.167,378.333 151.5,379C 152.424,379.85 152.424,380.85 151.5,382C 151.836,383.03 152.503,383.53 153.5,383.5C 146.875,388.046 139.542,391.046 131.5,392.5C 128.15,392.335 124.817,392.502 121.5,393C 118.467,394.844 115.134,395.844 111.5,396C 104.174,396.5 96.8409,396.666 89.5,396.5C 74.793,395.934 72.793,390.934 83.5,381.5C 85.143,381.48 86.4763,382.147 87.5,383.5C 86.6765,378.56 88.1765,374.227 92,370.5C 93.0804,365.329 95.4137,360.996 99,357.5C 100.517,346.544 100.85,335.544 100,324.5C 99.0018,321.766 97.1685,320.099 94.5,319.5C 92.1667,316.167 89.8333,312.833 87.5,309.5C 84.4261,303.735 81.7594,297.735 79.5,291.5C 78.797,286.698 77.797,282.031 76.5,277.5C 76.6282,273.73 77.2949,270.063 78.5,266.5C 78.9484,270.102 80.2817,273.269 82.5,276C 81.548,277.3 81.548,278.467 82.5,279.5C 83.8512,275.521 85.1845,275.521 86.5,279.5C 85.5,280.833 84.5,282.167 83.5,283.5C 85.5756,284.1 87.5756,284.433 89.5,284.5C 91.369,288.604 94.0357,292.104 97.5,295C 98.938,295.219 100.271,295.719 101.5,296.5C 98.6717,300.198 99.005,300.865 102.5,298.5C 103.216,300.482 104.383,302.149 106,303.5C 106.004,305.368 105.504,307.202 104.5,309C 104.645,309.772 104.978,310.439 105.5,311C 104.692,311.308 104.025,311.808 103.5,312.5C 104.628,313.262 105.795,313.929 107,314.5C 108.494,313.253 109.994,313.253 111.5,314.5C 110.167,315.167 108.833,315.833 107.5,316.5C 113.877,319.132 120.543,320.132 127.5,319.5C 127.168,328.857 127.502,338.19 128.5,347.5C 130.071,346.691 131.738,346.357 133.5,346.5C 133.192,344.076 133.526,341.743 134.5,339.5C 135.944,338.019 136.611,338.352 136.5,340.5 Z"/></g>
<g><path style="opacity:1" fill="#2463ac" d="M 295.5,333.5 C 293.9,337.014 291.233,339.348 287.5,340.5C 287.265,339.903 286.765,339.57 286,339.5C 275.195,344.909 263.695,347.575 251.5,347.5C 266.766,345.08 281.433,340.413 295.5,333.5 Z"/></g>
<g><path style="opacity:1" fill="#cce1f7" d="M 223.5,345.5 C 220.097,345.149 216.763,344.482 213.5,343.5C 212.833,343.5 212.167,343.5 211.5,343.5C 207.24,341.465 202.74,339.798 198,338.5C 195.774,339.033 193.607,339.7 191.5,340.5C 191.577,339.25 192.244,338.417 193.5,338C 198.239,337.274 202.905,337.607 207.5,339C 207.167,339.333 206.833,339.667 206.5,340C 210.819,340.76 215.152,341.427 219.5,342C 221.319,342.74 222.652,343.907 223.5,345.5 Z"/></g>
<g><path style="opacity:1" fill="#0667c6" d="M 348.5,303.5 C 349.5,303.5 350.5,303.5 351.5,303.5C 351.5,305.167 351.5,306.833 351.5,308.5C 348.911,308.461 346.911,309.461 345.5,311.5C 342.937,313.05 340.603,315.05 338.5,317.5C 336.922,318.298 335.256,318.798 333.5,319C 334.428,319.388 335.095,320.055 335.5,321C 334.804,322.893 333.97,324.726 333,326.5C 326.659,335.001 320.159,343.335 313.5,351.5C 309.821,353.585 306.654,356.252 304,359.5C 303.51,358.207 303.343,356.873 303.5,355.5C 299.902,356.303 296.569,357.637 293.5,359.5C 293.5,357.833 293.5,356.167 293.5,354.5C 291.5,354.5 289.5,354.5 287.5,354.5C 288.57,351.911 289.903,349.411 291.5,347C 290.902,345.699 289.902,344.865 288.5,344.5C 287.571,343.311 287.238,341.978 287.5,340.5C 291.233,339.348 293.9,337.014 295.5,333.5C 297.564,333.313 299.564,332.813 301.5,332C 307.758,328.083 313.758,323.75 319.5,319C 322.091,318.539 324.257,319.372 326,321.5C 326.54,319.865 326.04,318.532 324.5,317.5C 324.833,316.833 325.167,316.167 325.5,315.5C 328.196,314.107 330.529,312.44 332.5,310.5C 337.307,307.1 342.64,304.766 348.5,303.5 Z"/></g>
<g><path style="opacity:1" fill="#20579c" d="M 213.5,343.5 C 216.763,344.482 220.097,345.149 223.5,345.5C 232.626,346.988 241.959,347.655 251.5,347.5C 251.5,348.167 251.167,348.5 250.5,348.5C 241.161,348.666 231.827,348.5 222.5,348C 219.017,347.235 216.017,345.735 213.5,343.5 Z"/></g>
<g><path style="opacity:1" fill="#095eb9" d="M 287.5,340.5 C 287.238,341.978 287.571,343.311 288.5,344.5C 289.902,344.865 290.902,345.699 291.5,347C 289.903,349.411 288.57,351.911 287.5,354.5C 289.5,354.5 291.5,354.5 293.5,354.5C 293.5,356.167 293.5,357.833 293.5,359.5C 296.569,357.637 299.902,356.303 303.5,355.5C 303.343,356.873 303.51,358.207 304,359.5C 306.654,356.252 309.821,353.585 313.5,351.5C 310.571,355.606 307.404,359.606 304,363.5C 303.51,364.793 303.343,366.127 303.5,367.5C 300.886,367.277 299.219,368.444 298.5,371C 295.284,373.39 291.95,375.556 288.5,377.5C 286.921,375.354 284.921,375.188 282.5,377C 280.668,379.492 278.502,381.658 276,383.5C 273.853,382.404 273.353,380.904 274.5,379C 273.551,378.383 272.718,378.549 272,379.5C 270.934,377.901 269.434,376.901 267.5,376.5C 265.225,373.676 262.892,370.842 260.5,368C 256.436,366.72 254.769,363.886 255.5,359.5C 253.833,359.5 252.167,359.5 250.5,359.5C 250.305,355.622 250.305,351.956 250.5,348.5C 251.167,348.5 251.5,348.167 251.5,347.5C 263.695,347.575 275.195,344.909 286,339.5C 286.765,339.57 287.265,339.903 287.5,340.5 Z"/></g>
<g><path style="opacity:1" fill="#244f96" d="M 211.5,343.5 C 207.256,342.807 203.089,341.807 199,340.5C 196.992,340.307 195.492,340.974 194.5,342.5C 190.902,343.303 187.569,344.637 184.5,346.5C 184.5,347.833 184.5,349.167 184.5,350.5C 180.452,350.395 176.452,350.728 172.5,351.5C 178.67,347.581 185.003,343.914 191.5,340.5C 193.607,339.7 195.774,339.033 198,338.5C 202.74,339.798 207.24,341.465 211.5,343.5 Z"/></g>
<g><path style="opacity:1" fill="#134ba3" d="M 239.5,398.5 C 229.681,399.494 219.681,399.827 209.5,399.5C 192.241,396.877 175.908,391.377 160.5,383C 158.153,382.666 155.819,382.833 153.5,383.5C 152.503,383.53 151.836,383.03 151.5,382C 152.424,380.85 152.424,379.85 151.5,379C 154.167,378.333 154.167,377.667 151.5,377C 153.303,376.363 154.636,375.197 155.5,373.5C 152.427,372.803 150.427,370.97 149.5,368C 150.833,367.667 152.167,367.333 153.5,367C 152.892,366.13 152.059,365.63 151,365.5C 148.567,366.479 146.067,367.145 143.5,367.5C 147.186,365.205 151.186,363.372 155.5,362C 156.252,361.329 156.586,360.496 156.5,359.5C 161.581,356.293 166.914,353.626 172.5,351.5C 176.452,350.728 180.452,350.395 184.5,350.5C 184.5,349.167 184.5,347.833 184.5,346.5C 187.569,344.637 190.902,343.303 194.5,342.5C 196.54,341.481 198.54,341.481 200.5,342.5C 200.222,345.067 200.056,347.733 200,350.5C 197.2,349.872 194.533,348.872 192,347.5C 191.51,348.793 191.343,350.127 191.5,351.5C 192.873,351.343 194.207,351.51 195.5,352C 196.594,353.78 197.594,355.614 198.5,357.5C 199.167,357.167 199.833,356.833 200.5,356.5C 202.324,358.896 202.99,361.396 202.5,364C 205.308,364.019 207.641,365.019 209.5,367C 208.027,367.71 207.36,368.876 207.5,370.5C 211.5,369.833 213.167,371.5 212.5,375.5C 213.873,375.343 215.207,375.51 216.5,376C 219.675,378.846 222.509,382.013 225,385.5C 227.176,384.484 228.343,382.818 228.5,380.5C 231.534,380.609 232.534,381.943 231.5,384.5C 234.08,385.549 236.746,386.216 239.5,386.5C 239.5,387.5 239.5,388.5 239.5,389.5C 237.143,389.337 234.81,389.503 232.5,390C 235.279,390.889 237.945,392.056 240.5,393.5C 243.102,391.764 243.936,392.431 243,395.5C 240.342,394.306 239.176,395.306 239.5,398.5 Z"/></g>
<g><path style="opacity:1" fill="#274189" d="M 94.5,319.5 C 97.1685,320.099 99.0018,321.766 100,324.5C 100.85,335.544 100.517,346.544 99,357.5C 95.4137,360.996 93.0804,365.329 92,370.5C 88.1765,374.227 86.6765,378.56 87.5,383.5C 86.4763,382.147 85.143,381.48 83.5,381.5C 94.182,364.774 99.3487,346.44 99,326.5C 97.2765,324.283 95.7765,321.95 94.5,319.5 Z"/></g>
<g><path style="opacity:1" fill="#075294" d="M 345.5,311.5 C 343.639,313.745 342.639,316.412 342.5,319.5C 333.758,331.979 325.258,344.645 317,357.5C 300.745,380.197 278.911,394.197 251.5,399.5C 240.914,401.194 230.247,401.86 219.5,401.5C 215.878,401.678 212.544,401.011 209.5,399.5C 219.681,399.827 229.681,399.494 239.5,398.5C 244.705,397.314 249.871,395.981 255,394.5C 257.737,395.61 260.571,395.777 263.5,395C 267.623,393.439 271.623,391.605 275.5,389.5C 276.711,388.726 276.711,387.893 275.5,387C 279.727,383.595 284.06,380.428 288.5,377.5C 291.95,375.556 295.284,373.39 298.5,371C 299.219,368.444 300.886,367.277 303.5,367.5C 303.343,366.127 303.51,364.793 304,363.5C 307.404,359.606 310.571,355.606 313.5,351.5C 320.159,343.335 326.659,335.001 333,326.5C 333.97,324.726 334.804,322.893 335.5,321C 335.095,320.055 334.428,319.388 333.5,319C 335.256,318.798 336.922,318.298 338.5,317.5C 340.603,315.05 342.937,313.05 345.5,311.5 Z"/></g>
<g><path style="opacity:1" fill="#0d55ae" d="M 211.5,343.5 C 212.167,343.5 212.833,343.5 213.5,343.5C 216.017,345.735 219.017,347.235 222.5,348C 231.827,348.5 241.161,348.666 250.5,348.5C 250.305,351.956 250.305,355.622 250.5,359.5C 252.167,359.5 253.833,359.5 255.5,359.5C 254.769,363.886 256.436,366.72 260.5,368C 262.892,370.842 265.225,373.676 267.5,376.5C 269.434,376.901 270.934,377.901 272,379.5C 272.718,378.549 273.551,378.383 274.5,379C 273.353,380.904 273.853,382.404 276,383.5C 278.502,381.658 280.668,379.492 282.5,377C 284.921,375.188 286.921,375.354 288.5,377.5C 284.06,380.428 279.727,383.595 275.5,387C 276.711,387.893 276.711,388.726 275.5,389.5C 271.623,391.605 267.623,393.439 263.5,395C 260.571,395.777 257.737,395.61 255,394.5C 249.871,395.981 244.705,397.314 239.5,398.5C 239.176,395.306 240.342,394.306 243,395.5C 243.936,392.431 243.102,391.764 240.5,393.5C 237.945,392.056 235.279,390.889 232.5,390C 234.81,389.503 237.143,389.337 239.5,389.5C 239.5,388.5 239.5,387.5 239.5,386.5C 236.746,386.216 234.08,385.549 231.5,384.5C 232.534,381.943 231.534,380.609 228.5,380.5C 228.343,382.818 227.176,384.484 225,385.5C 222.509,382.013 219.675,378.846 216.5,376C 215.207,375.51 213.873,375.343 212.5,375.5C 213.167,371.5 211.5,369.833 207.5,370.5C 207.36,368.876 208.027,367.71 209.5,367C 207.641,365.019 205.308,364.019 202.5,364C 202.99,361.396 202.324,358.896 200.5,356.5C 199.833,356.833 199.167,357.167 198.5,357.5C 197.594,355.614 196.594,353.78 195.5,352C 194.207,351.51 192.873,351.343 191.5,351.5C 191.343,350.127 191.51,348.793 192,347.5C 194.533,348.872 197.2,349.872 200,350.5C 200.056,347.733 200.222,345.067 200.5,342.5C 198.54,341.481 196.54,341.481 194.5,342.5C 195.492,340.974 196.992,340.307 199,340.5C 203.089,341.807 207.256,342.807 211.5,343.5 Z"/></g>
<g><path style="opacity:1" fill="#12bbf1" d="M 338.5,375.5 C 333.949,378.943 328.949,381.61 323.5,383.5C 324.3,381.259 325.966,380.259 328.5,380.5C 328.785,378.712 328.452,377.045 327.5,375.5C 324.904,374.518 322.238,373.851 319.5,373.5C 319.5,372.167 319.5,370.833 319.5,369.5C 323.204,369.357 326.537,370.357 329.5,372.5C 330.167,372.167 330.833,371.833 331.5,371.5C 328.334,370.1 325.334,368.266 322.5,366C 319.668,365.674 317.001,366.174 314.5,367.5C 314.649,368.552 314.483,369.552 314,370.5C 307.86,375.306 302.36,380.806 297.5,387C 296.207,387.49 294.873,387.657 293.5,387.5C 293.511,385.983 294.177,384.816 295.5,384C 300.857,380.468 305.69,376.302 310,371.5C 316.212,363.67 322.378,356.003 328.5,348.5C 330.765,346.445 332.765,344.111 334.5,341.5C 335.487,344.768 335.82,348.102 335.5,351.5C 337.124,351.64 338.29,350.973 339,349.5C 339.667,350.167 340.333,350.833 341,351.5C 343.243,349.718 345.743,349.218 348.5,350C 348.799,351.32 348.966,352.82 349,354.5C 350.406,355.668 351.572,355.335 352.5,353.5C 353.277,355.777 354.277,357.943 355.5,360C 353.392,360.526 351.059,361.526 348.5,363C 347.638,367.532 344.972,370.532 340.5,372C 339.177,372.816 338.511,373.983 338.5,375.5 Z"/></g>
<g><path style="opacity:1" fill="#264485" d="M 156.5,359.5 C 156.586,360.496 156.252,361.329 155.5,362C 151.186,363.372 147.186,365.205 143.5,367.5C 138.083,369.547 132.583,371.213 127,372.5C 125.745,371.789 124.579,370.956 123.5,370C 124.264,367.931 124.764,365.764 125,363.5C 125.417,362.244 126.25,361.577 127.5,361.5C 124.256,365.599 125.089,368.266 130,369.5C 139.1,366.866 147.933,363.533 156.5,359.5 Z"/></g>
<g><path style="opacity:1" fill="#25d5f7" d="M 369.5,300.5 C 370.376,300.369 371.043,300.702 371.5,301.5C 369.535,302.292 367.535,302.959 365.5,303.5C 362.914,305.818 363.58,307.151 367.5,307.5C 366.622,309.748 366.955,311.915 368.5,314C 371.14,314.896 373.307,316.396 375,318.5C 376.183,317.269 377.349,317.269 378.5,318.5C 377.167,319.167 375.833,319.833 374.5,320.5C 374.887,321.72 375.72,322.387 377,322.5C 378.168,321.491 379.335,320.491 380.5,319.5C 381.287,320.242 381.953,321.075 382.5,322C 384.18,322.034 385.68,322.201 387,322.5C 387.317,320.699 387.984,320.366 389,321.5C 389.71,320.027 390.876,319.36 392.5,319.5C 387.959,328.035 382.292,335.702 375.5,342.5C 376.854,338.968 378.854,335.802 381.5,333C 376.807,331.568 376.141,328.901 379.5,325C 377.837,324.735 376.337,325.235 375,326.5C 372.863,324.679 372.03,322.346 372.5,319.5C 371.5,319.5 370.5,319.5 369.5,319.5C 369.261,321.467 369.594,323.301 370.5,325C 369.953,325.925 369.287,326.758 368.5,327.5C 367.52,324.914 367.187,322.247 367.5,319.5C 364.91,319.604 362.577,318.937 360.5,317.5C 359.328,317.919 358.328,318.585 357.5,319.5C 357.167,319 356.833,318.5 356.5,318C 358.397,316.217 360.063,314.217 361.5,312C 358.153,310.794 355.82,311.794 354.5,315C 351.554,315.806 348.888,317.139 346.5,319C 347.576,320.726 347.743,322.559 347,324.5C 344.054,325.293 341.887,326.96 340.5,329.5C 340.142,331.701 338.808,333.035 336.5,333.5C 333.542,338.419 330.876,343.419 328.5,348.5C 322.378,356.003 316.212,363.67 310,371.5C 305.69,376.302 300.857,380.468 295.5,384C 294.177,384.816 293.511,385.983 293.5,387.5C 283.714,392.617 273.714,397.284 263.5,401.5C 258.821,401.666 254.155,401.499 249.5,401C 250.416,400.722 251.082,400.222 251.5,399.5C 278.911,394.197 300.745,380.197 317,357.5C 325.258,344.645 333.758,331.979 342.5,319.5C 349.31,309.939 358.31,303.605 369.5,300.5 Z"/></g>
<g><path style="opacity:1" fill="#0cb2f0" d="M 323.5,383.5 C 311.877,388.108 299.877,391.775 287.5,394.5C 287.5,393.5 287.5,392.5 287.5,391.5C 290.292,391.378 292.292,390.044 293.5,387.5C 294.873,387.657 296.207,387.49 297.5,387C 302.36,380.806 307.86,375.306 314,370.5C 314.483,369.552 314.649,368.552 314.5,367.5C 317.001,366.174 319.668,365.674 322.5,366C 325.334,368.266 328.334,370.1 331.5,371.5C 330.833,371.833 330.167,372.167 329.5,372.5C 326.537,370.357 323.204,369.357 319.5,369.5C 319.5,370.833 319.5,372.167 319.5,373.5C 322.238,373.851 324.904,374.518 327.5,375.5C 328.452,377.045 328.785,378.712 328.5,380.5C 325.966,380.259 324.3,381.259 323.5,383.5 Z"/></g>
<g><path style="opacity:1" fill="#20aee1" d="M 323.5,383.5 C 318.693,386.405 313.693,389.072 308.5,391.5C 296.264,395.607 283.931,398.94 271.5,401.5C 268.833,401.5 266.167,401.5 263.5,401.5C 273.714,397.284 283.714,392.617 293.5,387.5C 292.292,390.044 290.292,391.378 287.5,391.5C 287.5,392.5 287.5,393.5 287.5,394.5C 299.877,391.775 311.877,388.108 323.5,383.5 Z"/></g>
<g><path style="opacity:1" fill="#2e427e" d="M 131.5,392.5 C 117.835,397.41 103.835,398.743 89.5,396.5C 96.8409,396.666 104.174,396.5 111.5,396C 115.134,395.844 118.467,394.844 121.5,393C 124.817,392.502 128.15,392.335 131.5,392.5 Z"/></g>
<g><path style="opacity:1" fill="#c1f0fb" d="M 308.5,391.5 C 305.419,393.625 302.086,395.458 298.5,397C 293.529,397.312 288.863,398.645 284.5,401C 280.179,401.499 275.846,401.666 271.5,401.5C 283.931,398.94 296.264,395.607 308.5,391.5 Z"/></g>
<g><path style="opacity:1" fill="#5fbfd9" d="M 251.5,399.5 C 251.082,400.222 250.416,400.722 249.5,401C 254.155,401.499 258.821,401.666 263.5,401.5C 262.737,402.268 261.737,402.768 260.5,403C 248.171,403.5 235.838,403.667 223.5,403.5C 222.167,402.833 220.833,402.167 219.5,401.5C 230.247,401.86 240.914,401.194 251.5,399.5 Z"/></g>
<g><path style="opacity:1" fill="#d3f7fe" d="M 263.5,401.5 C 266.167,401.5 268.833,401.5 271.5,401.5C 268.645,403.25 265.311,404.083 261.5,404C 248.66,404.827 235.993,404.66 223.5,403.5C 235.838,403.667 248.171,403.5 260.5,403C 261.737,402.768 262.737,402.268 263.5,401.5 Z"/></g>
</svg>
